<?xml version="1.0" encoding="UTF-8"?>
<svg version="1.1" xmlns="http://www.w3.org/2000/svg" width="500" height="500">
<path d="M0 0 C0.93251587 -0.00671722 1.86503174 -0.01343445 2.82580566 -0.02035522 C5.89914321 -0.0393049 8.97226201 -0.04325796 12.0456543 -0.04541016 C14.19028309 -0.05184035 16.334911 -0.05856888 18.47953796 -0.06558228 C22.97254469 -0.07754759 27.46547457 -0.08126388 31.95849609 -0.08007812 C37.70165995 -0.07987502 43.44432851 -0.10717205 49.18737507 -0.14162254 C53.61675762 -0.16391501 58.04602143 -0.16791493 62.47545433 -0.16685867 C64.59205011 -0.16921128 66.70864932 -0.17801554 68.82518959 -0.19352341 C71.79266162 -0.21322985 74.75907152 -0.20732676 77.7265625 -0.1953125 C78.59180038 -0.20655151 79.45703827 -0.21779053 80.34849548 -0.22937012 C86.5371667 -0.16604743 91.10219463 1.42388663 96.55737305 4.29052734 C97.54737305 4.78552734 97.54737305 4.78552734 98.55737305 5.29052734 C98.55737305 5.95052734 98.55737305 6.61052734 98.55737305 7.29052734 C99.21737305 7.29052734 99.87737305 7.29052734 100.55737305 7.29052734 C100.55737305 7.95052734 100.55737305 8.61052734 100.55737305 9.29052734 C101.21737305 9.29052734 101.87737305 9.29052734 102.55737305 9.29052734 C104.06518555 10.97021484 104.06518555 10.97021484 105.68237305 13.16552734 C106.22120117 13.88482422 106.7600293 14.60412109 107.31518555 15.34521484 C108.55737305 17.29052734 108.55737305 17.29052734 108.55737305 19.29052734 C109.21737305 19.29052734 109.87737305 19.29052734 110.55737305 19.29052734 C111.8190918 20.68115234 111.8190918 20.68115234 113.24487305 22.54052734 C116.90772995 26.87973912 120.37016854 29.8151587 126.07327271 30.66577148 C133.87082295 31.27224669 141.60565822 31.4061182 149.42456055 31.35302734 C150.76363428 31.34820263 152.10271031 31.34398327 153.44178772 31.34031677 C156.29143639 31.332005 159.14105968 31.32126155 161.99069214 31.30856323 C169.57408492 31.27605634 177.15751139 31.26704361 184.7409668 31.26318359 C185.51565119 31.26275621 186.29033558 31.26232883 187.08849525 31.2618885 C203.54637864 31.25739682 219.99988596 31.4313801 236.45548248 31.69580078 C238.4909524 31.72796539 240.5264433 31.7581511 242.56195068 31.7878418 C246.34048717 31.84448051 250.11883772 31.90788386 253.8972168 31.97412109 C255.56905785 31.99918983 255.56905785 31.99918983 257.27467346 32.02476501 C258.29858688 32.04471024 259.32250031 32.06465546 260.37744141 32.08520508 C261.26265976 32.10074936 262.14787811 32.11629364 263.05992126 32.13230896 C265.6344784 32.29541212 268.04244889 32.72754673 270.55737305 33.29052734 C270.55737305 33.95052734 270.55737305 34.61052734 270.55737305 35.29052734 C271.17612305 35.43490234 271.79487305 35.57927734 272.43237305 35.72802734 C274.55737305 36.29052734 274.55737305 36.29052734 276.55737305 37.29052734 C276.55737305 37.95052734 276.55737305 38.61052734 276.55737305 39.29052734 C277.21737305 39.29052734 277.87737305 39.29052734 278.55737305 39.29052734 C284.96442526 49.31082189 284.25318983 59.61280703 284.17260742 71.04101562 C284.17611271 73.13638762 284.18177588 75.23175694 284.18942261 77.32711792 C284.20361961 82.99235776 284.18665973 88.65710926 284.16313744 94.32230234 C284.14296882 100.26246323 284.14891103 106.20260503 284.15124512 112.14279175 C284.15119162 122.11415622 284.13147655 132.08533074 284.09936523 142.05664062 C284.06245556 153.57371165 284.05369331 165.09053415 284.06066275 176.6076566 C284.06697395 187.7044739 284.05620327 198.80120628 284.03669739 209.89800644 C284.02853729 214.61309904 284.02581127 219.32814816 284.02738953 224.04324722 C284.02827028 229.59688938 284.01400066 235.1502964 283.98816299 240.7038765 C283.98101878 242.73836629 283.97890913 244.77288113 283.98228073 246.80738068 C283.98601323 249.59116961 283.97118678 252.37427899 283.95178223 255.1579895 C283.95711015 255.95693355 283.96243808 256.75587759 283.96792746 257.57903206 C283.8707954 265.69334446 281.78092832 272.43052768 276.5456543 278.68505859 C269.67469156 284.23312477 263.60843812 284.87185208 255.07070923 284.80519104 C253.93161838 284.81213657 252.79252753 284.8190821 251.61891878 284.8262381 C247.81125634 284.84449879 244.00421759 284.83424572 240.1965332 284.82397461 C237.46282931 284.82884102 234.72915566 284.83964201 231.99546814 284.8500824 C225.34629514 284.87169373 218.69729347 284.87160279 212.04809691 284.86345685 C206.64170129 284.85714935 201.23535552 284.85830076 195.82896042 284.86472893 C194.67342846 284.86608141 194.67342846 284.86608141 193.49455243 284.86746122 C191.929419 284.86931248 190.36428558 284.87117504 188.79915218 284.87304877 C174.13098169 284.88961758 159.46290745 284.88091624 144.79474275 284.8640632 C131.38711351 284.84937059 117.97970847 284.86399001 104.5721081 284.89283336 C90.79241089 284.92225552 77.01281704 284.93319121 63.2330898 284.92365116 C61.67319896 284.92262865 60.11330809 284.92163404 58.55341721 284.92066765 C57.78599746 284.92019126 57.01857772 284.91971487 56.22790284 284.91922404 C50.83183321 284.91706344 45.43586184 284.92684523 40.039814 284.94143867 C33.45808026 284.95899098 26.87663215 284.95880354 20.29490949 284.93608702 C16.93948289 284.9249698 13.58497117 284.92444394 10.22950172 284.94038773 C6.5851915 284.95633208 2.94225015 284.94135121 -0.70199585 284.91871643 C-1.75298505 284.93055216 -2.80397425 284.94238789 -3.88681161 284.95458227 C-11.89380296 284.85379317 -18.90412412 282.87263849 -24.66137695 277.04443359 C-25.08418945 276.32126953 -25.50700195 275.59810547 -25.94262695 274.85302734 C-26.6077832 273.77214844 -26.6077832 273.77214844 -27.28637695 272.66943359 C-30.30031235 266.46846516 -30.73282856 261.18536501 -30.71005249 254.41107178 C-30.71684916 252.92551061 -30.71684916 252.92551061 -30.72378314 251.4099381 C-30.73643609 248.0937198 -30.73480616 244.77766554 -30.7331543 241.46142578 C-30.73913901 239.08270557 -30.74594442 236.70398731 -30.75350952 234.32527161 C-30.7693476 228.53546456 -30.77561821 222.74570723 -30.77673428 216.9558796 C-30.77768576 212.24738767 -30.78180105 207.53890914 -30.78813553 202.83042145 C-30.80574348 189.46950076 -30.81497522 176.10861217 -30.81347458 162.7476798 C-30.81339467 162.02785953 -30.81331476 161.30803926 -30.81323242 160.56640625 C-30.81310978 159.48535134 -30.81310978 159.48535134 -30.81298466 158.38245693 C-30.81217211 146.7077585 -30.83130309 135.0331892 -30.85950916 123.35852811 C-30.88826844 111.35980901 -30.90204775 99.36115281 -30.9003216 87.36239839 C-30.8996587 80.63055864 -30.90510686 73.89885422 -30.9266777 67.16704559 C-30.94605932 60.83373682 -30.94618472 54.50071355 -30.93164444 48.16739464 C-30.92955512 45.84627808 -30.93426449 43.52514365 -30.94636536 41.20405769 C-30.96184601 38.02834381 -30.95249026 34.85361087 -30.93710327 31.67791748 C-30.9473904 30.76563818 -30.95767752 29.85335887 -30.96827638 28.91343474 C-30.88631834 21.22629301 -29.01979686 14.41025934 -24.06762695 8.41552734 C-16.16811898 2.02068756 -9.97406026 -0.01037542 0 0 Z M69.18237305 78.29052734 C66.41568603 83.39825721 65.30313072 87.09820475 65.29174805 92.95458984 C65.28916992 94.24236328 65.2865918 95.53013672 65.28393555 96.85693359 C65.288125 97.5248291 65.29231445 98.19272461 65.29663086 98.88085938 C65.30723028 100.88848559 65.29573351 102.89618906 65.28393555 104.90380859 C65.29922362 112.58606717 65.83535431 119.79641162 67.55737305 127.29052734 C65.62571289 127.64050781 65.62571289 127.64050781 63.6550293 127.99755859 C58.29877974 129.19330908 53.80252235 131.38509402 48.99487305 133.97802734 C48.19629883 134.38730469 47.39772461 134.79658203 46.57495117 135.21826172 C38.2307229 139.64539506 31.75268377 144.73209347 27.55737305 153.29052734 C27.06237305 154.28052734 27.06237305 154.28052734 26.55737305 155.29052734 C25.83395127 162.38006078 27.8995101 167.75116211 32.11206055 173.36083984 C40.35582174 182.38298192 53.10232814 188.45373291 64.55737305 192.29052734 C65.54737305 192.29052734 66.53737305 192.29052734 67.55737305 192.29052734 C67.34842407 193.10360352 67.34842407 193.10360352 67.13525391 193.93310547 C65.46484676 201.18067245 65.15223508 208.33091046 65.13183594 215.74023438 C65.11988694 217.78814672 65.07050229 219.83308603 65.02026367 221.88037109 C64.9110234 230.77242175 66.02093072 238.01072833 71.96533203 244.92919922 C75.42446209 248.13906928 78.96776292 249.49921525 83.55737305 250.29052734 C96.03148094 249.68694148 109.1496695 243.46709931 118.55737305 235.29052734 C118.55737305 234.63052734 118.55737305 233.97052734 118.55737305 233.29052734 C119.09362305 233.04302734 119.62987305 232.79552734 120.18237305 232.54052734 C123.12161557 230.99355759 125.81491712 229.16038366 128.55737305 227.29052734 C128.55737305 227.95052734 128.55737305 228.61052734 128.55737305 229.29052734 C129.21737305 229.29052734 129.87737305 229.29052734 130.55737305 229.29052734 C130.55737305 229.95052734 130.55737305 230.61052734 130.55737305 231.29052734 C132.8912671 233.30707288 132.8912671 233.30707288 135.80737305 235.35302734 C136.7819043 236.06587891 137.75643555 236.77873047 138.76049805 237.51318359 C141.17050092 239.04467983 142.77866247 239.8604888 145.55737305 240.29052734 C145.55737305 240.95052734 145.55737305 241.61052734 145.55737305 242.29052734 C157.85586981 249.04485304 157.85586981 249.04485304 171.55737305 250.29052734 C174.64282493 249.12141048 177.60460978 247.76034728 180.55737305 246.29052734 C180.55737305 245.63052734 180.55737305 244.97052734 180.55737305 244.29052734 C181.21737305 244.29052734 181.87737305 244.29052734 182.55737305 244.29052734 C191.50056754 230.77333261 190.38399056 216.10214353 187.3112793 200.92724609 C187.06249023 199.72712891 186.81370117 198.52701172 186.55737305 197.29052734 C186.2231997 195.6240289 185.88946621 193.95744156 185.55737305 192.29052734 C186.43135742 192.16935547 187.3053418 192.04818359 188.20581055 191.92333984 C201.93334105 189.33142849 215.71492638 181.0164548 224.55737305 170.29052734 C227.84189589 165.18362408 227.30336261 159.10787715 226.55737305 153.29052734 C222.27519238 141.78981355 209.34080046 135.72904679 198.9519043 130.70068359 C194.5539945 128.8737038 190.28052482 127.82378641 185.55737305 127.29052734 C185.84612305 126.30052734 186.13487305 125.31052734 186.43237305 124.29052734 C190.1801727 109.27255874 191.88947655 92.6730185 184.86987305 78.35302734 C181.36545922 73.71204686 177.84872832 70.9211141 172.04956055 69.81005859 C161.73739378 69.25386301 152.12060544 73.91361398 143.55737305 79.29052734 C143.55737305 79.95052734 143.55737305 80.61052734 143.55737305 81.29052734 C142.9953418 81.38462891 142.43331055 81.47873047 141.85424805 81.57568359 C138.99205473 82.46646825 137.15966844 83.87924616 134.80737305 85.72802734 C134.0081543 86.34548828 133.20893555 86.96294922 132.38549805 87.59912109 C131.7822168 88.15728516 131.17893555 88.71544922 130.55737305 89.29052734 C130.55737305 89.95052734 130.55737305 90.61052734 130.55737305 91.29052734 C127.95154933 92.22117867 126.91539081 92.43970141 124.30737305 91.35302734 C123.44112305 90.82708984 123.44112305 90.82708984 122.55737305 90.29052734 C122.55737305 89.63052734 122.55737305 88.97052734 122.55737305 88.29052734 C119.92052558 85.89232429 119.92052558 85.89232429 116.55737305 85.29052734 C116.55737305 84.63052734 116.55737305 83.97052734 116.55737305 83.29052734 C112.49163744 80.09492693 112.49163744 80.09492693 107.55737305 79.29052734 C107.55737305 78.63052734 107.55737305 77.97052734 107.55737305 77.29052734 C94.44441386 70.5008133 79.94688226 64.69325255 69.18237305 78.29052734 Z " fill="#298FE2" transform="translate(123.442626953125,107.70947265625)"/>
<path d="M0 0 C5.26487906 -0.27341578 10.52557601 -0.47215375 15.79589844 -0.60424805 C17.5850423 -0.65933093 19.37369613 -0.73423072 21.16113281 -0.82983398 C35.90845485 -1.59843745 35.90845485 -1.59843745 40.79077148 2.1328125 C42.90859257 4.98719021 44.46143356 7.79969038 46 11 C47.06549167 12.76311605 48.13936952 14.52119877 49.22265625 16.2734375 C50.17694525 17.96966354 51.12366581 19.67017138 52.0625 21.375 C52.55943359 22.23738281 53.05636719 23.09976562 53.56835938 23.98828125 C54.03177734 24.82488281 54.49519531 25.66148437 54.97265625 26.5234375 C55.59539429 27.635979 55.59539429 27.635979 56.23071289 28.77099609 C57.45568218 32.32033586 56.53990571 34.83541218 55.00024414 38.15649414 C54.59926514 38.85895264 54.19828613 39.56141113 53.78515625 40.28515625 C53.34623047 41.06310547 52.90730469 41.84105469 52.45507812 42.64257812 C51.99552734 43.44115234 51.53597656 44.23972656 51.0625 45.0625 C50.15691935 46.65719294 49.25194998 48.25223319 48.34765625 49.84765625 C47.94554932 50.54898682 47.54344238 51.25031738 47.12915039 51.97290039 C46.02488831 53.95531943 44.99878185 55.96271365 44 58 C43.34 58 42.68 58 42 58 C41.814375 58.94875 41.62875 59.8975 41.4375 60.875 C40 64 40 64 37.25390625 65.1796875 C31.45433419 66.60445722 25.43042445 66.28830199 19.5 66.25 C18.30246094 66.25773437 17.10492188 66.26546875 15.87109375 66.2734375 C3.82087973 66.24674821 3.82087973 66.24674821 -1 64 C-2.83484087 61.91426656 -4.07969454 60.23259707 -5.4375 57.875 C-5.8072998 57.26406494 -6.17709961 56.65312988 -6.55810547 56.02368164 C-7.74037734 54.0337166 -8.87623342 52.02354076 -10 50 C-10.39493652 49.29246582 -10.78987305 48.58493164 -11.19677734 47.85595703 C-12.36588487 45.7293039 -13.50271544 43.5891904 -14.625 41.4375 C-15.15758423 40.43855713 -15.15758423 40.43855713 -15.70092773 39.41943359 C-17.05137383 36.72264922 -18.00872729 34.55592859 -17.9609375 31.51171875 C-16.60159594 27.95864304 -14.85316107 24.69254709 -13 21.375 C-10.17716709 16.3375344 -10.17716709 16.3375344 -8 11 C-7.34 11 -6.68 11 -6 11 C-5.896875 10.443125 -5.79375 9.88625 -5.6875 9.3125 C-4.85821592 6.5230899 -3.65700944 4.3860936 -2 2 C-1.34 2 -0.68 2 0 2 C0 1.34 0 0.68 0 0 Z M5.7578125 22.54296875 C2.74972658 27.07584305 2.40398286 30.63584572 3 36 C4.85961588 40.83500128 7.32432322 44.41969623 11.83203125 47.08203125 C16.46124391 49.04214832 21.6650984 48.91433962 26.32421875 47.08984375 C30.78666728 44.52455448 33.44661628 42.04849708 35 37 C35.94039837 30.48863406 34.92169559 26.26332829 31 21 C27.21914991 17.31367116 24.11871131 16.6963862 19 16.5 C13.116573 16.72572554 9.56112305 17.8187308 5.7578125 22.54296875 Z " fill="#2989DB" transform="translate(231,235)"/>
<path d="M0 0 C0.31376521 1.54140966 0.62594465 3.08314215 0.9375 4.625 C1.11152344 5.48351562 1.28554688 6.34203125 1.46484375 7.2265625 C3.54534476 18.00872101 4.89078315 29.75552006 0 40 C-1.48046875 41.76953125 -1.48046875 41.76953125 -3 43 C-3.66 43 -4.32 43 -5 43 C-5 43.66 -5 44.32 -5 45 C-15.65421028 46.24993528 -22.86677299 42.89101774 -32 38 C-32 37.34 -32 36.68 -32 36 C-32.72574219 35.75507813 -33.45148438 35.51015625 -34.19921875 35.2578125 C-37.31287937 33.85948793 -39.31400755 32.18703779 -41.8125 29.875 C-42.60269531 29.15054687 -43.39289063 28.42609375 -44.20703125 27.6796875 C-44.79871094 27.12539063 -45.39039063 26.57109375 -46 26 C-44.72272021 22.49362135 -43.24444971 19.66700699 -41 16.6875 C-40.484375 15.99011719 -39.96875 15.29273438 -39.4375 14.57421875 C-38.963125 14.05472656 -38.48875 13.53523438 -38 13 C-37.34 13 -36.68 13 -36 13 C-36 12.34 -36 11.68 -36 11 C-35.34 11 -34.68 11 -34 11 C-33.71125 10.236875 -33.4225 9.47375 -33.125 8.6875 C-32 6 -32 6 -30 3 C-27.92456055 2.39990234 -27.92456055 2.39990234 -25.38671875 2.0859375 C-24.46826172 1.96476562 -23.54980469 1.84359375 -22.60351562 1.71875 C-21.16008789 1.54859375 -21.16008789 1.54859375 -19.6875 1.375 C-17.79544133 1.13384269 -15.90350963 0.89168664 -14.01171875 0.6484375 C-13.17084717 0.54708496 -12.32997559 0.44573242 -11.46362305 0.34130859 C-8.95500826 0.02387139 -8.95500826 0.02387139 -6.33129883 -0.56787109 C-3.84738695 -1.02828831 -2.37235922 -0.79078641 0 0 Z " fill="#348FDB" transform="translate(302,304)"/>
<path d="M0 0 C4.52345994 1.67464262 8.76178695 3.70316196 13 6 C13 6.66 13 7.32 13 8 C13.66 8.04125 14.32 8.0825 15 8.125 C19.32665788 9.38694188 22.71836789 11.93008609 26 15 C26 15.66 26 16.32 26 17 C26.66 17 27.32 17 28 17 C28 17.66 28 18.32 28 19 C28.66 19 29.32 19 30 19 C29.67 20.32 29.34 21.64 29 23 C28.34 23 27.68 23 27 23 C26.76410156 23.54398438 26.52820313 24.08796875 26.28515625 24.6484375 C24.65860629 27.62467785 22.61741527 30.02869642 20.4375 32.625 C17.41267744 36.11066681 17.41267744 36.11066681 15 40 C14.34 40 13.68 40 13 40 C13 40.66 13 41.32 13 42 C12.03513672 42.05607422 12.03513672 42.05607422 11.05078125 42.11328125 C4.47778531 42.5914878 -1.67261669 43.74026645 -8.0546875 45.37890625 C-10.80903862 45.95973095 -13.19746879 46.1189266 -16 46 C-18.82653769 38.46256617 -19.1807118 30.95576559 -19.1875 23 C-19.19974609 22.24460938 -19.21199219 21.48921875 -19.22460938 20.7109375 C-19.24210257 13.92357973 -18.67355986 6.2768298 -13.7890625 1.078125 C-9.52898925 -1.48908071 -4.70932965 -0.85425049 0 0 Z " fill="#2A85D7" transform="translate(215,186)"/>
<path d="M0 0 C5.41255376 3.86610983 6.93154296 8.67829586 8 15 C8.65811083 25.50446132 7.42504624 34.82346666 5 45 C0.68060379 46.21558993 -2.36259803 45.68079914 -6.6875 44.625 C-11.04381602 43.57222363 -14.72623454 42.95341287 -19.1875 43.125 C-23.72747051 42.83039293 -25.71755507 40.62561183 -28.60668945 37.38427734 C-35 29.71312711 -35 29.71312711 -35 27 C-35.66 27 -36.32 27 -37 27 C-41 22.64705882 -41 22.64705882 -41 19 C-40.34 19 -39.68 19 -39 19 C-39 18.34 -39 17.68 -39 17 C-38.34 17 -37.68 17 -37 17 C-37 16.34 -37 15.68 -37 15 C-28.21767528 7.18879772 -12.25113051 -3.29005625 0 0 Z " fill="#328EDA" transform="translate(297,186)"/>
<path d="M0 0 C6.22896369 0.82005965 6.22896369 0.82005965 8.65942383 1.15722656 C12.09752514 1.6318913 15.51489877 2.04759143 18.97265625 2.3671875 C28.12648416 3.31048417 28.12648416 3.31048417 30.76171875 5.390625 C32.24718804 7.53804025 33 9.37510552 33 12 C33.66 12 34.32 12 35 12 C36.58996769 13.66581936 38.09916096 15.40941388 39.5625 17.1875 C40.77099609 18.63189453 40.77099609 18.63189453 42.00390625 20.10546875 C43.93940847 22.91213636 44.65136495 24.65432676 45 28 C34.04172262 37.51299276 22.70050381 46.60826366 7.5625 46.3203125 C4.0123954 45.87654942 2.31615087 44.68972359 0 42 C-5.89548329 33.45154923 -3.35915973 18.06460385 -2.4140625 8.24609375 C-1.8874703 5.38957947 -0.96546582 2.73548649 0 0 Z " fill="#2E86D7" transform="translate(199,303)"/>
<path d="M0 0 C8.63057198 1.23293885 15.68946634 5.11228563 23.31494141 9.1171875 C25.19758844 10.10351779 27.09415355 11.05932514 29 12 C29 12.66 29 13.32 29 14 C29.598125 14.185625 30.19625 14.37125 30.8125 14.5625 C34.0185001 16.66930007 35.12254864 19.39112747 36 23 C36.3849963 27.46245717 35.4446547 30.91798167 32.75 34.5 C24.96730687 42.63560761 13.67515008 47.87703064 3 51 C1.68 51 0.36 51 -1 51 C-1.20157715 50.44538086 -1.4031543 49.89076172 -1.61083984 49.31933594 C-2.52976718 46.79532071 -3.45234535 44.27265497 -4.375 41.75 C-4.69210937 40.87730469 -5.00921875 40.00460937 -5.3359375 39.10546875 C-5.6453125 38.26113281 -5.9546875 37.41679687 -6.2734375 36.546875 C-6.69761963 35.38430176 -6.69761963 35.38430176 -7.13037109 34.19824219 C-7.96092063 31.98028633 -7.96092063 31.98028633 -9.11181641 29.90332031 C-10.55431334 26.81214216 -9.88298361 24.15836445 -9 21 C-7.48170781 16.9323366 -5.7630181 12.96679073 -4 9 C-3.5978125 8.08476562 -3.195625 7.16953125 -2.78125 6.2265625 C-1.86282704 4.14699051 -0.93637577 2.07153523 0 0 Z " fill="#2F8AD8" transform="translate(307,242)"/>
<path d="M0 0 C1.48657647 3.5594526 2.9629424 7.12305348 4.4375 10.6875 C4.85837891 11.69490234 5.27925781 12.70230469 5.71289062 13.74023438 C6.11572266 14.71669922 6.51855469 15.69316406 6.93359375 16.69921875 C7.30540771 17.59471436 7.67722168 18.49020996 8.06030273 19.4128418 C9.74136046 24.04110074 10.45461485 26.88166413 8.41796875 31.46875 C8.06283203 32.28730469 7.70769531 33.10585938 7.34179688 33.94921875 C6.96087891 34.79097656 6.57996094 35.63273437 6.1875 36.5 C5.45171088 38.17703418 4.71603061 39.85411613 3.98046875 41.53125 C3.63419434 42.30855469 3.28791992 43.08585937 2.93115234 43.88671875 C1.89602961 46.23596426 0.92713722 48.6061219 0 51 C-5.03354846 50.38939848 -9.21610178 48.8997342 -13.8125 46.875 C-14.51665039 46.5651416 -15.22080078 46.2552832 -15.94628906 45.93603516 C-24.07829342 42.2258784 -31.87890696 37.24218608 -36 29 C-36.40601504 20.60902256 -36.40601504 20.60902256 -34 17 C-33.34 17 -32.68 17 -32 17 C-31.64228516 16.10087891 -31.64228516 16.10087891 -31.27734375 15.18359375 C-27.26452465 8.32375927 -16.03123777 4.9809856 -9 2 C-8.15050781 1.62359375 -7.30101562 1.2471875 -6.42578125 0.859375 C-4 0 -4 0 0 0 Z " fill="#2C8AD9" transform="translate(194,242)"/>
<path d="M0 0 C4.01811948 5.06632456 4.14248464 9.19703229 4.12025452 15.48503113 C4.12110894 16.36147461 4.12196337 17.23791809 4.12284368 18.14092046 C4.12449584 21.08900332 4.1189814 24.03702977 4.11352539 26.98510742 C4.11324344 29.09389749 4.11340141 31.20268765 4.1139679 33.31147766 C4.11425555 39.04666285 4.108364 44.78182725 4.10139394 50.51700759 C4.09515505 56.50680547 4.09455618 62.49660379 4.09336853 68.48640442 C4.0902568 79.83358505 4.08204553 91.18075607 4.07201904 102.52793247 C4.06085301 115.44432091 4.05534622 128.36070981 4.05032361 141.27710187 C4.03986279 167.85140658 4.02226639 194.42570275 4 221 C3.34 221 2.68 221 2 221 C1.99576806 219.91570489 1.99153612 218.83140978 1.98717594 217.71425724 C1.88395435 191.32354914 1.77520227 164.93286823 1.66066074 138.54220676 C1.60539707 125.77985602 1.55192641 113.01750248 1.50268555 100.25512695 C1.45975965 89.13066195 1.4134606 78.00621696 1.36312145 66.88178295 C1.33658817 60.9922305 1.31173696 55.10268184 1.29092598 49.21310616 C1.2712756 43.66707186 1.24710718 38.12107541 1.21950912 32.57507515 C1.21018304 30.54220266 1.20249202 28.5093219 1.19658089 26.47643661 C1.18824374 23.69446012 1.17394672 20.91257365 1.15821838 18.13063049 C1.15724028 17.33196503 1.15626217 16.53329956 1.15525442 15.71043211 C1.11688696 10.40923231 0.65626887 5.2614587 0 0 Z " fill="#77B4E2" transform="translate(403,151)"/>
<path d="M0 0 C1.32 0 2.64 0 4 0 C2.1895139 4.38200171 -0.24173229 5.84995377 -4.35288799 7.98563945 C-9.05687156 9.78818325 -13.63578554 9.68416798 -18.62037659 9.62818909 C-20.3324112 9.63883067 -20.3324112 9.63883067 -22.07903236 9.64968723 C-25.8884027 9.66723356 -29.69674825 9.64917797 -33.50610352 9.63110352 C-36.24320257 9.63348626 -38.98026364 9.64333723 -41.71734619 9.65278625 C-48.37044197 9.67112842 -55.02324331 9.66267389 -61.6763298 9.64469803 C-67.08462992 9.6306516 -72.49285031 9.62678361 -77.90116692 9.6301403 C-78.67196351 9.63061775 -79.4427601 9.63109519 -80.23691417 9.6315871 C-81.80293753 9.63261346 -83.36896088 9.63366882 -84.9349842 9.63475286 C-98.77043562 9.64331284 -112.60574521 9.62666716 -126.44116211 9.59692383 C-139.85723832 9.56808251 -153.27311027 9.56100643 -166.68920898 9.57641602 C-181.31054763 9.59318701 -195.93178938 9.59720367 -210.55313057 9.57970566 C-212.11296998 9.57786133 -213.67280941 9.5760266 -215.23264885 9.57420158 C-216.00005503 9.57328949 -216.76746121 9.5723774 -217.55812212 9.57143768 C-222.95862621 9.56583829 -228.35908291 9.56913382 -233.75958443 9.57574654 C-240.34279655 9.58348769 -246.9258078 9.57669896 -253.50897951 9.5515715 C-256.86607362 9.53909477 -260.22259555 9.53506289 -263.57974052 9.54411316 C-267.22235783 9.55280154 -270.86406576 9.53686009 -274.50660706 9.5146637 C-276.0908062 9.52702485 -276.0908062 9.52702485 -277.70700938 9.53963572 C-284.23282275 9.46623741 -288.38576666 8.36654822 -294 5 C-290.62103629 4.04178641 -288.41222148 3.98555578 -285 5 C-284.67 5.66 -284.34 6.32 -284 7 C-193.25 7.33 -102.5 7.66 -9 8 C-9 7.34 -9 6.68 -9 6 C-7.35 6 -5.7 6 -4 6 C-4 5.34 -4 4.68 -4 4 C-3.01 4 -2.02 4 -1 4 C-0.67 2.68 -0.34 1.36 0 0 Z " fill="#428ECD" transform="translate(397,383)"/>
<path d="M0 0 C6.43974581 0.62320121 12.67572401 1.64008262 19 3 C18.39124245 7.60416626 17.15277044 11.56483324 15.4375 15.875 C14.98246094 17.02742188 14.52742188 18.17984375 14.05859375 19.3671875 C13.70925781 20.23601562 13.35992187 21.10484375 13 22 C12.34 22 11.68 22 11 22 C9.66796875 20.12890625 9.66796875 20.12890625 8.1875 17.5625 C7.66285156 16.655 7.13820313 15.7475 6.59765625 14.8125 C6.07042969 13.884375 5.54320312 12.95625 5 12 C4.50371094 11.154375 4.00742187 10.30875 3.49609375 9.4375 C0 3.38158832 0 3.38158832 0 0 Z " fill="#3A94DD" transform="translate(280,236)"/>
<path d="M0 0 C-1.44389527 2.6545841 -2.89048299 5.30756097 -4.34375 7.95703125 C-5.38079588 9.86235846 -6.40396102 11.77538073 -7.40625 13.69921875 C-7.8290625 14.49972656 -8.251875 15.30023438 -8.6875 16.125 C-9.06261719 16.84945312 -9.43773437 17.57390625 -9.82421875 18.3203125 C-11 20 -11 20 -14 21 C-15.00399524 18.37646482 -16.00334445 15.75132205 -17 13.125 C-17.42925781 12.00544922 -17.42925781 12.00544922 -17.8671875 10.86328125 C-20 5.2265625 -20 5.2265625 -20 3 C-16.89951812 1.2710254 -14.04775326 0.4554108 -10.5625 -0.1875 C-9.63566406 -0.36667969 -8.70882812 -0.54585937 -7.75390625 -0.73046875 C-4.91370276 -1.00844611 -2.75082995 -0.70393289 0 0 Z " fill="#4C93D4" transform="translate(221,237)"/>
<path d="M0 0 C0.99 0.33 1.98 0.66 3 1 C4.38671875 3.8359375 4.38671875 3.8359375 5.6875 7.375 C6.12449219 8.53773438 6.56148438 9.70046875 7.01171875 10.8984375 C8 14 8 14 8 17 C4.89951812 18.7289746 2.04775326 19.5445892 -1.4375 20.1875 C-2.36433594 20.36667969 -3.29117187 20.54585938 -4.24609375 20.73046875 C-7.08629724 21.00844611 -9.24917005 20.70393289 -12 20 C-10.7527532 17.79007241 -9.50229753 15.58206337 -8.25 13.375 C-7.90195312 12.75753906 -7.55390625 12.14007813 -7.1953125 11.50390625 C-4.94881649 7.55173734 -2.56432686 3.75408212 0 0 Z " fill="#3A91D6" transform="translate(291,278)"/>
<path d="M0 0 C3.22475126 1.35016272 4.66528188 2.54162597 6.359375 5.58984375 C6.75253906 6.29173828 7.14570313 6.99363281 7.55078125 7.71679688 C8.14439453 8.81604492 8.14439453 8.81604492 8.75 9.9375 C9.16121094 10.66646484 9.57242188 11.39542969 9.99609375 12.14648438 C13 17.59044072 13 17.59044072 13 21 C-1.06976744 19.46511628 -1.06976744 19.46511628 -6 17 C-4.33846988 11.14340094 -2.52958084 5.5409866 0 0 Z " fill="#298BDA" transform="translate(207,278)"/>
<path d="M0 0 C7.92 0 15.84 0 24 0 C22.20893495 3.58213009 20.35198072 6.76602651 18 10 C17.34 10 16.68 10 16 10 C15.34 11.32 14.68 12.64 14 14 C12.68 14 11.36 14 10 14 C9.34 12.68 8.68 11.36 8 10 C7.34 10 6.68 10 6 10 C4.4921875 8.3203125 4.4921875 8.3203125 2.875 6.125 C2.33617187 5.40570313 1.79734375 4.68640625 1.2421875 3.9453125 C0 2 0 2 0 0 Z " fill="#4D98D5" transform="translate(238,308)"/>
<path d="M0 0 C0.66 0.33 1.32 0.66 2 1 C2 1.66 2 2.32 2 3 C2.66 3 3.32 3 4 3 C5.9453125 5.1171875 5.9453125 5.1171875 8.125 7.875 C8.84945313 8.77992188 9.57390625 9.68484375 10.3203125 10.6171875 C12 13 12 13 12 15 C4.08 14.67 -3.84 14.34 -12 14 C-11.34 13.67 -10.68 13.34 -10 13 C-9.27840576 11.35636866 -8.60648579 9.68949614 -8 8 C-7.34 8 -6.68 8 -6 8 C-6 7.34 -6 6.68 -6 6 C-5.34 6 -4.68 6 -4 6 C-3.566875 5.071875 -3.566875 5.071875 -3.125 4.125 C-2 2 -2 2 0 0 Z " fill="#559BD3" transform="translate(250,212)"/>
<path d="M0 0 C19.75711273 -0.0755708 39.4961309 0.13432395 59.25 0.5 C61.96483482 0.54868452 64.67968278 0.5966152 67.39453125 0.64453125 C73.92973605 0.76043293 80.46488655 0.87906219 87 1 C87 1.66 87 2.32 87 3 C58.29 3 29.58 3 0 3 C0 2.01 0 1.02 0 0 Z " fill="#2A82CE" transform="translate(299,139)"/>
<path d="M0 0 C0.33 0 0.66 0 1 0 C1.33 3.3 1.66 6.6 2 10 C2.66 10 3.32 10 4 10 C4 14.95 4 19.9 4 25 C5.98 25.66 7.96 26.32 10 27 C10.33 26.01 10.66 25.02 11 24 C11.40774658 24.48895752 11.81549316 24.97791504 12.2355957 25.48168945 C14.41820934 27.35987877 15.39266086 27.35334764 18.23046875 27.29296875 C19.43413086 27.2784668 19.43413086 27.2784668 20.66210938 27.26367188 C21.49548828 27.23853516 22.32886719 27.21339844 23.1875 27.1875 C24.03248047 27.17396484 24.87746094 27.16042969 25.74804688 27.14648438 C27.83230384 27.11115799 29.91623277 27.05735139 32 27 C32 27.33 32 27.66 32 28 C31.35675781 28.03738281 30.71351563 28.07476562 30.05078125 28.11328125 C23.47778531 28.5914878 17.32738331 29.74026645 10.9453125 31.37890625 C8.19096138 31.95973095 5.80253121 32.1189266 3 32 C0.09293196 24.24781855 -0.14897567 16.66862484 -0.0625 8.5 C-0.05798828 7.67757812 -0.05347656 6.85515625 -0.04882812 6.0078125 C-0.03718489 4.00517604 -0.01925556 2.00257773 0 0 Z " fill="#61A1DD" transform="translate(196,200)"/>
<path d="M0 0 C0.66 0.66 1.32 1.32 2 2 C1.63592496 6.75961513 -0.59389373 11.15194285 -2.4375 15.5 C-3.06134907 16.98952004 -3.68505075 18.47910181 -4.30859375 19.96875 C-4.74727783 21.01095703 -4.74727783 21.01095703 -5.19482422 22.07421875 C-6.15581061 24.37266044 -7.08509618 26.68285665 -8 29 C-11.9492568 28.44894091 -15.34920174 27.61064629 -19 26 C-15.18510326 24.53273202 -12.70988378 25.56663581 -9 27 C-9.33 23.7 -9.66 20.4 -10 17 C-9.34 16.67 -8.68 16.34 -8 16 C-7.67 16.99 -7.34 17.98 -7 19 C-6.505 14.545 -6.505 14.545 -6 10 C-5.01 9.67 -4.02 9.34 -3 9 C-1.81664605 6.11681225 -1.81664605 6.11681225 -1 3 C-0.67 2.01 -0.34 1.02 0 0 Z " fill="#579FD9" transform="translate(202,264)"/>
<path d="M0 0 C0.33 0 0.66 0 1 0 C1 1.98 1 3.96 1 6 C1.66 6 2.32 6 3 6 C3.02887814 9.47914941 3.04675687 12.95826831 3.0625 16.4375 C3.07087891 17.43072266 3.07925781 18.42394531 3.08789062 19.44726562 C3.09111328 20.39150391 3.09433594 21.33574219 3.09765625 22.30859375 C3.10289307 23.18314209 3.10812988 24.05769043 3.11352539 24.95874023 C3 27 3 27 2 28 C1.75454002 31.00461202 1.61594001 34.00824354 1.4765625 37.01953125 C0.96591917 40.21314488 0.14333494 41.63316222 -2 44 C-1.85775413 41.47891897 -1.71129879 38.95819597 -1.5625 36.4375 C-1.50352539 35.38079102 -1.50352539 35.38079102 -1.44335938 34.30273438 C-1.17497419 29.82276633 -0.6486502 25.44405801 0 21 C0.35057456 15.01961049 -0.21049287 9.1289523 -0.87890625 3.1875 C-0.91886719 2.465625 -0.95882813 1.74375 -1 1 C-0.67 0.67 -0.34 0.34 0 0 Z " fill="#4C98D3" transform="translate(312,190)"/>
<path d="M0 0 C12.54 0 25.08 0 38 0 C38.495 0.99 38.495 0.99 39 2 C37.97116699 2.00410889 36.94233398 2.00821777 35.88232422 2.01245117 C32.0463731 2.03430788 28.21143824 2.08866353 24.37597656 2.15258789 C22.71950051 2.17571129 21.06287862 2.19015032 19.40625 2.19555664 C17.01731079 2.20488843 14.63064721 2.24596464 12.2421875 2.29296875 C11.50757294 2.2890361 10.77295837 2.28510345 10.01608276 2.28105164 C4.27318094 2.4421436 1.92514042 4.12075187 -2 8 C-2 6.02 -2 4.04 -2 2 C-1.34 2 -0.68 2 0 2 C0 1.34 0 0.68 0 0 Z " fill="#4187C2" transform="translate(231,235)"/>
<path d="M0 0 C0.33 0 0.66 0 1 0 C1.02505615 0.74161377 1.0501123 1.48322754 1.07592773 2.24731445 C1.19186132 5.60255328 1.31459985 8.95750944 1.4375 12.3125 C1.47681641 13.47974609 1.51613281 14.64699219 1.55664062 15.84960938 C1.61948242 17.52700195 1.61948242 17.52700195 1.68359375 19.23828125 C1.72025146 20.26993408 1.75690918 21.30158691 1.79467773 22.36450195 C1.90161242 25.10748258 1.90161242 25.10748258 3 28 C3.12781786 30.67394964 3.04391871 33.32095857 3 36 C1.2097939 36.67057887 -0.58221489 37.3363469 -2.375 38 C-3.37273437 38.37125 -4.37046875 38.7425 -5.3984375 39.125 C-8 40 -8 40 -10 40 C-10 39.34 -10 38.68 -10 38 C-10.99 37.67 -11.98 37.34 -13 37 C-12.67 36.34 -12.34 35.68 -12 35 C-8.04 35.33 -4.08 35.66 0 36 C-0.08378906 34.99324219 -0.16757813 33.98648438 -0.25390625 32.94921875 C-1.08596991 21.87145594 -0.79010253 11.07359091 0 0 Z " fill="#73B3E5" transform="translate(188,199)"/>
<path d="M0 0 C1.32 0 2.64 0 4 0 C2.18998216 4.33113605 -0.12977878 5.86988083 -4.21456909 7.99423218 C-9.61386078 9.94381701 -15.11145231 9.60597103 -20.78515625 9.48828125 C-22.08198837 9.48120651 -23.3788205 9.47413177 -24.71495056 9.46684265 C-28.13318655 9.44791317 -31.55033008 9.39894007 -34.96813965 9.34332275 C-38.46754179 9.29182196 -41.96712355 9.26926351 -45.46679688 9.24414062 C-52.31164166 9.19080264 -59.15576813 9.10566597 -66 9 C-66 8.67 -66 8.34 -66 8 C-47.19 8 -28.38 8 -9 8 C-9 7.34 -9 6.68 -9 6 C-7.35 6 -5.7 6 -4 6 C-4 5.34 -4 4.68 -4 4 C-3.01 4 -2.02 4 -1 4 C-0.67 2.68 -0.34 1.36 0 0 Z " fill="#418ECC" transform="translate(397,383)"/>
<path d="M0 0 C-1.98 3.63 -3.96 7.26 -6 11 C-6.66 9.68 -7.32 8.36 -8 7 C-6.625 4.25 -6.625 4.25 -5 2 C-10.445 3.485 -10.445 3.485 -16 5 C-16 7.64 -16 10.28 -16 13 C-18.95183101 10.04816899 -19.08663988 7.04488053 -20 3 C-16.89951812 1.2710254 -14.04775326 0.4554108 -10.5625 -0.1875 C-9.63566406 -0.36667969 -8.70882812 -0.54585937 -7.75390625 -0.73046875 C-5 -1 -5 -1 0 0 Z " fill="#6DA2D4" transform="translate(221,237)"/>
<path d="M0 0 C0.66 0.33 1.32 0.66 2 1 C0.68 3.31 -0.64 5.62 -2 8 C-3.65 8 -5.3 8 -7 8 C-7 8.66 -7 9.32 -7 10 C-7.99 10.495 -7.99 10.495 -9 11 C-9.99 12.485 -9.99 12.485 -11 14 C-11.66 14 -12.32 14 -13 14 C-13.598125 14.515625 -14.19625 15.03125 -14.8125 15.5625 C-17 17 -17 17 -19.75 16.6875 C-20.4925 16.460625 -21.235 16.23375 -22 16 C-21 13 -21 13 -18.015625 11.31640625 C-16.76513006 10.72175599 -15.5096503 10.13750231 -14.25 9.5625 C-9.71485993 7.46899655 -5.87850543 5.17395678 -2 2 C-1.34 2 -0.68 2 0 2 C0 1.34 0 0.68 0 0 Z " fill="#4A97D4" transform="translate(242,341)"/>
<path d="M0 0 C2.23040612 1.07389924 4.14996013 2.11467539 6.125 3.625 C10.38738513 5.66353202 14.35730751 5.70343826 19 5 C21.40342402 3.90494882 22.95691016 2.7204967 25 1 C25.66 1.33 26.32 1.66 27 2 C26.67 3.65 26.34 5.3 26 7 C22.1413258 7.89820163 18.52163233 8.16418356 14.5625 8.1875 C13.47066406 8.20167969 12.37882813 8.21585937 11.25390625 8.23046875 C7.86141754 7.99018444 5.1819692 7.15832836 2 6 C1.34 6 0.68 6 0 6 C0 4.02 0 2.04 0 0 Z " fill="#5CA4DA" transform="translate(236,277)"/>
<path d="M0 0 C8.3150358 4.6372315 8.3150358 4.6372315 11 7 C11 7.66 11 8.32 11 9 C11.66 9 12.32 9 13 9 C13 9.66 13 10.32 13 11 C13.66 11 14.32 11 15 11 C14.67 12.32 14.34 13.64 14 15 C13.34 15 12.68 15 12 15 C11.34 16.32 10.68 17.64 10 19 C7.5705484 15.3558226 7.83820425 13.28758728 8 9 C7.34 9 6.68 9 6 9 C2 4.52941176 2 4.52941176 2 2 C1.34 2 0.68 2 0 2 C0 1.34 0 0.68 0 0 Z " fill="#62A2D8" transform="translate(230,194)"/>
<path d="M0 0 C0.33 0.99 0.66 1.98 1 3 C14.86 3.495 14.86 3.495 29 4 C29 4.66 29 5.32 29 6 C24.64589022 6.0583721 20.29188207 6.09372173 15.9375 6.125 C14.70837891 6.14175781 13.47925781 6.15851563 12.21289062 6.17578125 C6.09443607 6.20876483 0.75520567 6.17209842 -5 4 C-5 3.34 -5 2.68 -5 2 C-3.35 2 -1.7 2 0 2 C0 1.34 0 0.68 0 0 Z " fill="#73ADDB" transform="translate(235,295)"/>
<path d="M0 0 C1.4800841 0.11362262 2.95910074 0.24122908 4.4375 0.375 C5.26121094 0.44460938 6.08492188 0.51421875 6.93359375 0.5859375 C7.95646484 0.79089844 7.95646484 0.79089844 9 1 C9.33 1.66 9.66 2.32 10 3 C27.16 3.33 44.32 3.66 62 4 C62 4.33 62 4.66 62 5 C54.45617231 5.1017192 46.9125226 5.17159975 39.36816406 5.21972656 C36.8036437 5.23979728 34.23916885 5.26706001 31.67480469 5.30175781 C27.98100529 5.35047355 24.28781291 5.37301513 20.59375 5.390625 C18.8839093 5.42159271 18.8839093 5.42159271 17.13952637 5.45318604 C10.27150062 5.45510641 5.87674267 4.61357155 0 1 C0 0.67 0 0.34 0 0 Z " fill="#438ECE" transform="translate(103,387)"/>
<path d="M0 0 C1.60725635 3.21451269 1.05748185 6.43612536 1 10 C0.34 10 -0.32 10 -1 10 C-1.33 8.02 -1.66 6.04 -2 4 C-2.33 4.66 -2.66 5.32 -3 6 C-4.9375 6.75 -4.9375 6.75 -7 7 C-7.66 6.34 -8.32 5.68 -9 5 C-8.67 4.34 -8.34 3.68 -8 3 C-10.64 2.67 -13.28 2.34 -16 2 C-16 1.67 -16 1.34 -16 1 C-14.0852312 0.63571223 -12.16807707 0.28394694 -10.25 -0.0625 C-9.18265625 -0.25972656 -8.1153125 -0.45695312 -7.015625 -0.66015625 C-4.24226896 -0.97269767 -2.56169579 -1.04742234 0 0 Z " fill="#338AD7" transform="translate(302,304)"/>
<path d="M0 0 C0 0.66 0 1.32 0 2 C-1.65 2 -3.3 2 -5 2 C-5 2.66 -5 3.32 -5 4 C-6.375 5.625 -6.375 5.625 -8 7 C-8.66 7 -9.32 7 -10 7 C-10.33 8.32 -10.66 9.64 -11 11 C-11.99 11 -12.98 11 -14 11 C-14.33 12.32 -14.66 13.64 -15 15 C-16.32 15.33 -17.64 15.66 -19 16 C-17.08419189 8.51093194 -12.48095244 4.86099294 -6 1 C-3.81415715 0.27138572 -2.2889001 0 0 0 Z " fill="#479ADA" transform="translate(114,109)"/>
<path d="M0 0 C-0.0625 2.1875 -0.0625 2.1875 -1 5 C-3.1717219 6.93157957 -5.52601047 8.48201687 -8 10 C-8 8.02 -8 6.04 -8 4 C-8.99 4 -9.98 4 -11 4 C-11 3.34 -11 2.68 -11 2 C-10.34 2 -9.68 2 -9 2 C-8.67 1.01 -8.34 0.02 -8 -1 C-4.71293093 -2.47351372 -2.99288606 -1.8171094 0 0 Z " fill="#4C97D7" transform="translate(244,327)"/>
<path d="M0 0 C0.66 0.99 1.32 1.98 2 3 C1.360625 3.2475 0.72125 3.495 0.0625 3.75 C-2.18741541 4.81562433 -2.18741541 4.81562433 -2.75 7.125 C-2.8325 7.74375 -2.915 8.3625 -3 9 C-3.99 9 -4.98 9 -6 9 C-6 13.29 -6 17.58 -6 22 C-9.42410959 17.43452055 -9.67782452 15.42259613 -9 10 C-8 7.5 -8 7.5 -7 6 C-6.34 6 -5.68 6 -5 6 C-4.731875 5.38125 -4.46375 4.7625 -4.1875 4.125 C-3 2 -3 2 0 0 Z " fill="#5392CF" transform="translate(167,253)"/>
<path d="M0 0 C3.16115776 1.36983503 3.9927092 1.9890638 6 5 C5 8 5 8 2.625 9.1875 C0 10 0 10 -3 10 C-3 11.98 -3 13.96 -3 16 C-3.99 16.33 -4.98 16.66 -6 17 C-4.33846988 11.14340094 -2.52958084 5.5409866 0 0 Z " fill="#3F97DB" transform="translate(207,278)"/>
<path d="M0 0 C0.33 0.66 0.66 1.32 1 2 C0.01 3.485 0.01 3.485 -1 5 C-1.99 5 -2.98 5 -4 5 C-4 7.31 -4 9.62 -4 12 C-4.66 11.34 -5.32 10.68 -6 10 C-6.33 11.32 -6.66 12.64 -7 14 C-5.68 14.33 -4.36 14.66 -3 15 C-3.66 16.32 -4.32 17.64 -5 19 C-5 18.34 -5 17.68 -5 17 C-5.66 17 -6.32 17 -7 17 C-11 12.64705882 -11 12.64705882 -11 9 C-10.34 9 -9.68 9 -9 9 C-9 8.34 -9 7.68 -9 7 C-8.34 7 -7.68 7 -7 7 C-7 6.34 -7 5.68 -7 5 C-5.46875 3.7109375 -5.46875 3.7109375 -3.5 2.375 C-2.8503125 1.92898437 -2.200625 1.48296875 -1.53125 1.0234375 C-0.77328125 0.51683594 -0.77328125 0.51683594 0 0 Z " fill="#599BD6" transform="translate(267,196)"/>
<path d="M0 0 C1.98 0.99 1.98 0.99 4 2 C4 2.99 4 3.98 4 5 C4.66 5.33 5.32 5.66 6 6 C6 8.31 6 10.62 6 13 C6.99 12.34 7.98 11.68 9 11 C11.33199388 10.92094936 13.66832622 10.91201231 16 11 C13.49484216 13.50515784 11.38931835 14.05099086 8 15 C6.68 15 5.36 15 4 15 C3.32779649 13.06441401 2.66241923 11.12645628 2 9.1875 C1.62875 8.10855469 1.2575 7.02960938 0.875 5.91796875 C0 3 0 3 0 0 Z " fill="#5693CE" transform="translate(302,278)"/>
<path d="M0 0 C-0.33 2.64 -0.66 5.28 -1 8 C-2.32 8.33 -3.64 8.66 -5 9 C-5 8.34 -5 7.68 -5 7 C-6.65 7 -8.3 7 -10 7 C-9.67 5.02 -9.34 3.04 -9 1 C-5.94152152 0.45627049 -3.11227195 0 0 0 Z " fill="#268ADC" transform="translate(256,310)"/>
<path d="M0 0 C-0.25 1.875 -0.25 1.875 -1 4 C-2.8125 5.375 -2.8125 5.375 -5 6 C-7.25 5.125 -7.25 5.125 -9 4 C-8.01 5.485 -8.01 5.485 -7 7 C-6.67 7.99 -6.34 8.98 -6 10 C-6.33 10.66 -6.66 11.32 -7 12 C-8.32 11.67 -9.64 11.34 -11 11 C-11.33 8.36 -11.66 5.72 -12 3 C-10.56445975 2.49440092 -9.1264798 1.9957251 -7.6875 1.5 C-6.88699219 1.2215625 -6.08648437 0.943125 -5.26171875 0.65625 C-3 0 -3 0 0 0 Z " fill="#2381D5" transform="translate(216,239)"/>
<path d="M0 0 C2.31 0.33 4.62 0.66 7 1 C7.042721 2.66611905 7.04063832 4.33382885 7 6 C6 7 6 7 3.27734375 7.09765625 C1.62412109 7.08025391 1.62412109 7.08025391 -0.0625 7.0625 C-1.16722656 7.05347656 -2.27195313 7.04445312 -3.41015625 7.03515625 C-4.69212891 7.01775391 -4.69212891 7.01775391 -6 7 C-5.67 6.01 -5.34 5.02 -5 4 C-3.35 3.67 -1.7 3.34 0 3 C0 2.01 0 1.02 0 0 Z " fill="#2B8ADA" transform="translate(247,218)"/>
<path d="M0 0 C0.832155 2.60048436 0.97531003 4.41972942 0.8125 7.1875 C1.20454714 15.15912518 4.87403663 20.47153393 10.609375 25.78515625 C11.29773438 26.38650391 11.29773438 26.38650391 12 27 C11.34 27.66 10.68 28.32 10 29 C9.3503125 28.0409375 9.3503125 28.0409375 8.6875 27.0625 C7.08760823 24.73253997 7.08760823 24.73253997 4 24 C4 23.34 4 22.68 4 22 C3.34 22 2.68 22 2 22 C-1.81560518 15.32269093 -1.52609568 8.54744952 -1 1 C-0.67 0.67 -0.34 0.34 0 0 Z " fill="#599FD6" transform="translate(150,259)"/>
<path d="M0 0 C1.85546875 0.0859375 1.85546875 0.0859375 4.1875 0.375 C4.99445313 0.47425781 5.80140625 0.57351562 6.6328125 0.67578125 C9.43290591 1.05929239 12.21823034 1.50070801 15 2 C15 2.33 15 2.66 15 3 C12.36 3.33 9.72 3.66 7 4 C7.33 4.66 7.66 5.32 8 6 C7.01 6.99 6.02 7.98 5 9 C2.33264727 6.51047079 0.44253657 4.36591866 -1 1 C-0.67 0.67 -0.34 0.34 0 0 Z " fill="#6AAADC" transform="translate(280,236)"/>
<path d="M0 0 C2 2 2 2 2 4 C2.20625 4.99 2.4125 5.98 2.625 7 C2.74875 7.99 2.8725 8.98 3 10 C2.34 10.66 1.68 11.32 1 12 C-1.31 10.35 -3.62 8.7 -6 7 C-5.01 6.01 -4.02 5.02 -3 4 C-3 3.34 -3 2.68 -3 2 C-2.01 1.34 -1.02 0.68 0 0 Z " fill="#4394D6" transform="translate(170,272)"/>
<path d="M0 0 C0.69685498 1.6210103 1.38222861 3.24696066 2.0625 4.875 C2.44535156 5.77992188 2.82820312 6.68484375 3.22265625 7.6171875 C4 10 4 10 3 12 C2.34 11.67 1.68 11.34 1 11 C1 10.01 1 9.02 1 8 C0.01 8.33 -0.98 8.66 -2 9 C-2 7.02 -2 5.04 -2 3 C-6.455 3.495 -6.455 3.495 -11 4 C-7.63661956 0.63661956 -4.71164284 0 0 0 Z " fill="#5F9DD4" transform="translate(194,242)"/>
<path d="M0 0 C1.65 0.33 3.3 0.66 5 1 C3.68 1.33 2.36 1.66 1 2 C0.690625 3.093125 0.38125 4.18625 0.0625 5.3125 C-0.58337897 7.55407994 -1.2623117 9.7869351 -2 12 C-1.34 12 -0.68 12 0 12 C0 12.66 0 13.32 0 14 C-1.32 14 -2.64 14 -4 14 C-4.33 15.65 -4.66 17.3 -5 19 C-5.66 19 -6.32 19 -7 19 C-5.17778624 12.38757278 -2.94776396 6.19479329 0 0 Z " fill="#6CA1D0" transform="translate(307,242)"/>
<path d="M0 0 C1.64826111 2.96687001 2.44271087 5.65626525 3 9 C-0.89496215 11.30812572 -3.92638278 11.44834967 -8.3125 10.5 C-8.869375 10.335 -9.42625 10.17 -10 10 C-10 9.34 -10 8.68 -10 8 C-6.5980513 5.90649311 -3.94727588 5.82057837 0 6 C0 4.02 0 2.04 0 0 Z " fill="#3D98E3" transform="translate(296,286)"/>
<path d="M0 0 C1.62463842 -0.05395478 3.24978541 -0.09277195 4.875 -0.125 C5.77992188 -0.14820313 6.68484375 -0.17140625 7.6171875 -0.1953125 C10 0 10 0 12 2 C10.02 2 8.04 2 6 2 C5.67 3.65 5.34 5.3 5 7 C4.01 7.33 3.02 7.66 2 8 C1.01 7.01 0.02 6.02 -1 5 C-0.34 5 0.32 5 1 5 C0.67 3.35 0.34 1.7 0 0 Z " fill="#2A8BD7" transform="translate(286,239)"/>
<path d="M0 0 C1.32 0.66 2.64 1.32 4 2 C4 7.94 4 13.88 4 20 C3.34 20 2.68 20 2 20 C2 22.31 2 24.62 2 27 C0.02 27 -1.96 27 -4 27 C-3.071875 25.88625 -3.071875 25.88625 -2.125 24.75 C1.40162818 20.18612823 2.27693976 17.38822403 2.25 11.5625 C2.25515625 10.45003906 2.2603125 9.33757812 2.265625 8.19140625 C2.00441051 5.052991 1.33378454 2.83164575 0 0 Z " fill="#68A9DB" transform="translate(347,256)"/>
<path d="M0 0 C2.31 0 4.62 0 7 0 C6.67 0.66 6.34 1.32 6 2 C5.34 2 4.68 2 4 2 C4 2.66 4 3.32 4 4 C2.36021682 5.04349839 0.68535024 6.03182008 -1 7 C-3.36158242 8.62968704 -5.67723778 10.31485878 -8 12 C-8 10.68 -8 9.36 -8 8 C-7.01 8 -6.02 8 -5 8 C-5 7.01 -5 6.02 -5 5 C-3 4 -3 4 0 3 C0 2.01 0 1.02 0 0 Z " fill="#5FA8DB" transform="translate(263,185)"/>
<path d="M0 0 C1.65322266 0.01740234 1.65322266 0.01740234 3.33984375 0.03515625 C4.99693359 0.04869141 4.99693359 0.04869141 6.6875 0.0625 C7.54214844 0.07410156 8.39679688 0.08570313 9.27734375 0.09765625 C9.27734375 0.75765625 9.27734375 1.41765625 9.27734375 2.09765625 C7.8418035 2.60325533 6.40382355 3.10193115 4.96484375 3.59765625 C3.76408203 4.0153125 3.76408203 4.0153125 2.5390625 4.44140625 C0.04758324 5.16432251 -2.14708058 5.09765625 -4.72265625 5.09765625 C-3.60073576 0.12915121 -3.60073576 0.12915121 0 0 Z " fill="#4C91D3" transform="translate(205.72265625,185.90234375)"/>
<path d="M0 0 C-1.65167557 3.5786304 -3.78286492 6.74820188 -6 10 C-6.66 9.01 -7.32 8.02 -8 7 C-7.125 4.3125 -7.125 4.3125 -6 2 C-9.3 2 -12.6 2 -16 2 C-16 1.67 -16 1.34 -16 1 C-10.59255982 0.22750855 -5.46137814 -0.09752461 0 0 Z " fill="#69A6D6" transform="translate(262,308)"/>
<path d="M0 0 C1.32 0.33 2.64 0.66 4 1 C2.55049545 4.7910119 0.84827434 8.3874638 -1 12 C-1.66 12 -2.32 12 -3 12 C-3.66 13.98 -4.32 15.96 -5 18 C-5.66 17.67 -6.32 17.34 -7 17 C-6.67 15.02 -6.34 13.04 -6 11 C-4.68 11 -3.36 11 -2 11 C-2.33 9.68 -2.66 8.36 -3 7 C-2.01 6.67 -1.02 6.34 0 6 C0 4.02 0 2.04 0 0 Z " fill="#539EDA" transform="translate(276,281)"/>
<path d="M0 0 C4 1.33333333 8 2.66666667 12 4 C12 6.64 12 9.28 12 12 C10.49440461 10.03617993 9.10868317 8.21736634 8 6 C6.35 6.33 4.7 6.66 3 7 C2.690625 6.21625 2.38125 5.4325 2.0625 4.625 C1.07124962 2.07669872 1.07124962 2.07669872 0 0 Z " fill="#68A6D8" transform="translate(179,296)"/>
<path d="M0 0 C0.33 0 0.66 0 1 0 C1.01981934 0.6705542 1.03963867 1.3411084 1.06005859 2.03198242 C1.15559715 5.08420161 1.26515945 8.13576341 1.375 11.1875 C1.4059375 12.24259766 1.436875 13.29769531 1.46875 14.38476562 C1.50742188 15.40634766 1.54609375 16.42792969 1.5859375 17.48046875 C1.6173584 18.41785889 1.6487793 19.35524902 1.68115234 20.32104492 C2.02026628 23.17027713 2.90940336 25.36201085 4 28 C3.625 30.3125 3.625 30.3125 3 32 C2.34 31.67 1.68 31.34 1 31 C-0.06097369 27.26880455 -0.11667249 23.68451603 -0.09765625 19.82421875 C-0.09443359 18.66728516 -0.09121094 17.51035156 -0.08789062 16.31835938 C-0.07951172 15.12017578 -0.07113281 13.92199219 -0.0625 12.6875 C-0.05798828 11.46998047 -0.05347656 10.25246094 -0.04882812 8.99804688 C-0.03706578 5.99864774 -0.02062826 2.99934911 0 0 Z " fill="#84BAE5" transform="translate(188,318)"/>
<path d="M0 0 C1.5 1.375 1.5 1.375 3 3 C3 3.66 3 4.32 3 5 C3.66 5 4.32 5 5 5 C5.33 5.99 5.66 6.98 6 8 C4 9 4 9 2.0625 8.5 C-0.17665424 7.76397597 -0.17665424 7.76397597 -3 9 C-3 4 -3 4 -2 1 C-1.34 1.33 -0.68 1.66 0 2 C0 1.34 0 0.68 0 0 Z " fill="#3B8BD1" transform="translate(229,310)"/>
<path d="M0 0 C1.65 0.33 3.3 0.66 5 1 C4.75 3.875 4.75 3.875 4 7 C3.34 7.309375 2.68 7.61875 2 7.9375 C1.34 8.288125 0.68 8.63875 0 9 C-0.81870185 12.56206661 -0.81870185 12.56206661 -1 16 C-1.33 16 -1.66 16 -2 16 C-2.20413361 10.26157749 -2.27141454 5.39460953 0 0 Z " fill="#5A98D3" transform="translate(199,303)"/>
<path d="M0 0 C0 0.66 0 1.32 0 2 C0.66 2 1.32 2 2 2 C2 2.66 2 3.32 2 4 C0.68 4.33 -0.64 4.66 -2 5 C-2.33 6.32 -2.66 7.64 -3 9 C-4.9375 8.6875 -4.9375 8.6875 -7 8 C-7.33 7.01 -7.66 6.02 -8 5 C-2.25 0 -2.25 0 0 0 Z " fill="#3391DA" transform="translate(252,335)"/>
<path d="M0 0 C6.05901639 7.79016393 6.05901639 7.79016393 5.875 11.5625 C4.94505824 14.15305206 3.77771189 15.91312083 2 18 C2.33 15.03 2.66 12.06 3 9 C2.34 9 1.68 9 1 9 C0.67 6.03 0.34 3.06 0 0 Z " fill="#6CABDB" transform="translate(282,257)"/>
<path d="M0 0 C1.61635488 2.86973884 2.2733418 5.04464203 2.4140625 8.328125 C2.45273437 9.12734375 2.49140625 9.9265625 2.53125 10.75 C2.5621875 11.575 2.593125 12.4 2.625 13.25 C2.66367187 14.09046875 2.70234375 14.9309375 2.7421875 15.796875 C2.83615836 17.86423382 2.91915564 19.93208627 3 22 C2.34 22.33 1.68 22.66 1 23 C-0.13350534 25.01669827 -0.13350534 25.01669827 -1 27 C-1.12612613 20.56756757 -1.12612613 20.56756757 -0.5 17.75 C0.14183295 14.21991876 0.10694239 10.75998405 0.0625 7.1875 C0.05798828 6.49462891 0.05347656 5.80175781 0.04882812 5.08789062 C0.03713156 3.39188932 0.01919924 1.69593297 0 0 Z " fill="#63A3D7" transform="translate(312,316)"/>
<path d="M0 0 C3 1 3 1 4.1875 3.0625 C4.455625 3.701875 4.72375 4.34125 5 5 C1.0585998 6.03038433 -1.83615152 5.87693282 -5.8125 5.0625 C-6.78832031 4.86785156 -7.76414063 4.67320312 -8.76953125 4.47265625 C-9.50558594 4.31667969 -10.24164063 4.16070312 -11 4 C-11 3.67 -11 3.34 -11 3 C-7.7 3 -4.4 3 -1 3 C-0.67 2.01 -0.34 1.02 0 0 Z " fill="#75AFDC" transform="translate(216,293)"/>
<path d="M0 0 C0.99 0.33 1.98 0.66 3 1 C4.1875 4.5625 4.1875 4.5625 5 8 C4.34 8.66 3.68 9.32 3 10 C2.731875 9.360625 2.46375 8.72125 2.1875 8.0625 C1.11332248 5.66868314 1.11332248 5.66868314 -2 5 C-1.34 3.35 -0.68 1.7 0 0 Z " fill="#539DD7" transform="translate(291,278)"/>
<path d="M0 0 C1.22589844 0.15275391 1.22589844 0.15275391 2.4765625 0.30859375 C3.41628906 0.43427734 3.41628906 0.43427734 4.375 0.5625 C4.375 2.2125 4.375 3.8625 4.375 5.5625 C-0.375 4.8125 -0.375 4.8125 -2.625 2.5625 C-3.945 2.5625 -5.265 2.5625 -6.625 2.5625 C-6.625 1.9025 -6.625 1.2425 -6.625 0.5625 C-4.10446405 -0.69776798 -2.7707902 -0.35624445 0 0 Z " fill="#2C84D1" transform="translate(289.625,306.4375)"/>
<path d="M0 0 C0.66 0 1.32 0 2 0 C3.5078125 1.6796875 3.5078125 1.6796875 5.125 3.875 C5.66382813 4.59429687 6.20265625 5.31359375 6.7578125 6.0546875 C8 8 8 8 8 10 C8.66 10 9.32 10 10 10 C10.33 10.99 10.66 11.98 11 13 C10.01 13.495 10.01 13.495 9 14 C9 13.01 9 12.02 9 11 C7.02 11 5.04 11 3 11 C3.66 9.35 4.32 7.7 5 6 C4.01 6 3.02 6 2 6 C2 5.01 2 4.02 2 3 C1.34 3 0.68 3 0 3 C0 2.01 0 1.02 0 0 Z " fill="#6AACE0" transform="translate(224,117)"/>
<path d="M0 0 C0 0.66 0 1.32 0 2 C-0.66 2 -1.32 2 -2 2 C-2 2.66 -2 3.32 -2 4 C-6.50353262 5.75747614 -10.17639811 6.19294408 -15 6 C-15.33 7.32 -15.66 8.64 -16 10 C-16 8.35 -16 6.7 -16 5 C-13.70967689 4.16280617 -11.41789043 3.3301071 -9.125 2.5 C-8.47402344 2.26152344 -7.82304687 2.02304687 -7.15234375 1.77734375 C-2.2265625 0 -2.2265625 0 0 0 Z " fill="#6BADDC" transform="translate(325,295)"/>
<path d="M0 0 C0.33 0 0.66 0 1 0 C1.0825 1.27875 1.165 2.5575 1.25 3.875 C1.45869931 6.05333418 1.45869931 6.05333418 2 8 C3.92064793 9.5899433 3.92064793 9.5899433 6 10 C6 11.32 6 12.64 6 14 C4.35 14 2.7 14 1 14 C-0.38226016 11.23547967 -0.09525387 8.9538637 -0.0625 5.875 C-0.05347656 4.77929688 -0.04445312 3.68359375 -0.03515625 2.5546875 C-0.02355469 1.71164063 -0.01195312 0.86859375 0 0 Z " fill="#4A8CCD" transform="translate(198,218)"/>
<path d="M0 0 C0.53109375 0.38929688 1.0621875 0.77859375 1.609375 1.1796875 C-0.97474231 2.90243237 -2.93965156 3.86864272 -5.828125 4.8671875 C-6.58996094 5.13917969 -7.35179687 5.41117188 -8.13671875 5.69140625 C-10.60892221 6.22697892 -12.02045784 5.98414059 -14.390625 5.1796875 C-12.48455215 4.11876016 -10.56529754 3.08148649 -8.640625 2.0546875 C-7.03960937 1.18457031 -7.03960937 1.18457031 -5.40625 0.296875 C-2.390625 -0.8203125 -2.390625 -0.8203125 0 0 Z " fill="#579CD5" transform="translate(286.390625,187.8203125)"/>
<path d="M0 0 C4.95 2.64 9.9 5.28 15 8 C10.93890631 9.01527342 10.33033162 9.05430484 6.75 7.5625 C6.04359375 7.27503906 5.3371875 6.98757813 4.609375 6.69140625 C4.07828125 6.46324219 3.5471875 6.23507812 3 6 C3 5.34 3 4.68 3 4 C2.01 4 1.02 4 0 4 C0 2.68 0 1.36 0 0 Z " fill="#64A6D9" transform="translate(163,287)"/>
<path d="M0 0 C1.32 0.66 2.64 1.32 4 2 C3.04270084 3.12588014 2.08412105 4.2506715 1.125 5.375 C0.59132812 6.00148437 0.05765625 6.62796875 -0.4921875 7.2734375 C-1.61432007 8.55836651 -2.79371975 9.79371975 -4 11 C-4.33 9.35 -4.66 7.7 -5 6 C-4.01 6.33 -3.02 6.66 -2 7 C-2 6.34 -2 5.68 -2 5 C-2.66 4.67 -3.32 4.34 -4 4 C-3.67 3.34 -3.34 2.68 -3 2 C-2.01 2 -1.02 2 0 2 C0 1.34 0 0.68 0 0 Z " fill="#60A1D9" transform="translate(233,215)"/>
<path d="M0 0 C4.29 0 8.58 0 13 0 C13 0.99 13 1.98 13 3 C7.06 3 1.12 3 -5 3 C-5 2.67 -5 2.34 -5 2 C-3.35 2 -1.7 2 0 2 C0 1.34 0 0.68 0 0 Z " fill="#4092D6" transform="translate(285,139)"/>
<path d="M0 0 C1.32 0 2.64 0 4 0 C2.56684975 3.61773603 0.95412036 4.969107 -2.4375 6.8125 C-3.21996094 7.25207031 -4.00242187 7.69164062 -4.80859375 8.14453125 C-7 9 -7 9 -10 8 C-9.67 7.34 -9.34 6.68 -9 6 C-7.35 6 -5.7 6 -4 6 C-4 5.34 -4 4.68 -4 4 C-3.01 4 -2.02 4 -1 4 C-0.67 2.68 -0.34 1.36 0 0 Z " fill="#67ABDC" transform="translate(397,383)"/>
<path d="M0 0 C0.94359375 0.32484375 0.94359375 0.32484375 1.90625 0.65625 C7.51445928 2.48060724 12.10968596 3.32723967 18 3 C14.57905758 5.28062828 13.31812778 5.21925007 9.3125 5.125 C7.82169922 5.09792969 7.82169922 5.09792969 6.30078125 5.0703125 C5.54152344 5.04710937 4.78226563 5.02390625 4 5 C4 4.34 4 3.68 4 3 C2.35 3 0.7 3 -1 3 C-0.67 2.01 -0.34 1.02 0 0 Z " fill="#59A2D6" transform="translate(197,354)"/>
<path d="M0 0 C0.33 1.32 0.66 2.64 1 4 C-4.29230769 8.06153846 -4.29230769 8.06153846 -7.875 7.75 C-8.57625 7.5025 -9.2775 7.255 -10 7 C-6.80331012 4.3513141 -3.60513403 2.06007659 0 0 Z " fill="#55A3DF" transform="translate(339,286)"/>
<path d="M0 0 C13.56886228 -0.39520958 13.56886228 -0.39520958 18 2 C18.875 4.125 18.875 4.125 19 6 C18.01 6.495 18.01 6.495 17 7 C17 6.34 17 5.68 17 5 C16.195625 4.690625 15.39125 4.38125 14.5625 4.0625 C12 3 12 3 11 2 C9.15108054 1.76636119 7.29511969 1.58696365 5.4375 1.4375 C4.42558594 1.35371094 3.41367188 1.26992187 2.37109375 1.18359375 C1.19740234 1.09271484 1.19740234 1.09271484 0 1 C0 0.67 0 0.34 0 0 Z " fill="#6BADDF" transform="translate(245,251)"/>
<path d="M0 0 C4.92947689 -0.10150789 9.56533119 0.25757428 14.4375 1 C16.29181641 1.2784375 16.29181641 1.2784375 18.18359375 1.5625 C19.11300781 1.706875 20.04242188 1.85125 21 2 C21.33 2.99 21.66 3.98 22 5 C21.34 5 20.68 5 20 5 C20 4.34 20 3.68 20 3 C19.14277344 3.10699219 18.28554687 3.21398437 17.40234375 3.32421875 C10.64773855 4.03242426 5.94630206 4.45715236 0 1 C0 0.67 0 0.34 0 0 Z " fill="#75A9D6" transform="translate(207,305)"/>
<path d="M0 0 C2.31 0 4.62 0 7 0 C6.42655063 2.86724686 6.1385485 3.8614515 4 6 C3.01 6 2.02 6 1 6 C0.67 4.02 0.34 2.04 0 0 Z " fill="#2887D6" transform="translate(310,301)"/>
<path d="M0 0 C3 1 3 1 5 4 C5.66 3.67 6.32 3.34 7 3 C7 4.98 7 6.96 7 9 C5.35 9 3.7 9 2 9 C1.855625 8.2575 1.71125 7.515 1.5625 6.75 C1.09812508 4.47972261 0.58136431 2.24240521 0 0 Z " fill="#2687D7" transform="translate(289,283)"/>
<path d="M0 0 C2.31 0 4.62 0 7 0 C3.54077371 2.95051654 0.2161296 5.25855517 -4 7 C-4.99 6.67 -5.98 6.34 -7 6 C-6.34 6 -5.68 6 -5 6 C-5 5.01 -5 4.02 -5 3 C-3.35 3 -1.7 3 0 3 C0 2.01 0 1.02 0 0 Z " fill="#64A4D6" transform="translate(325,282)"/>
<path d="M0 0 C3.38891322 0.68886787 6.18011613 1.98716486 9.25 3.5625 C10.14203125 4.01753906 11.0340625 4.47257813 11.953125 4.94140625 C12.96632813 5.46541016 12.96632813 5.46541016 14 6 C11 7 11 7 8 6 C8 5.34 8 4.68 8 4 C5.69 4 3.38 4 1 4 C0.67 2.68 0.34 1.36 0 0 Z " fill="#69A3D8" transform="translate(318,246)"/>
<path d="M0 0 C1.32 0 2.64 0 4 0 C4.33 0.99 4.66 1.98 5 3 C7.97 3.495 7.97 3.495 11 4 C11 4.66 11 5.32 11 6 C9.02 6.99 9.02 6.99 7 8 C5 6.625 5 6.625 3 5 C3 4.34 3 3.68 3 3 C2.01 2.67 1.02 2.34 0 2 C0 1.34 0 0.68 0 0 Z " fill="#5D9ED9" transform="translate(243,193)"/>
<path d="M0 0 C2.12472576 -0.05386629 4.24983652 -0.09273071 6.375 -0.125 C7.55835938 -0.14820313 8.74171875 -0.17140625 9.9609375 -0.1953125 C13 0 13 0 15 2 C12.11584117 3.44207941 9.58278472 3.09394887 6.375 3.0625 C5.18648438 3.05347656 3.99796875 3.04445312 2.7734375 3.03515625 C1.85820312 3.02355469 0.94296875 3.01195312 0 3 C0 2.01 0 1.02 0 0 Z " fill="#4995D5" transform="translate(299,139)"/>
<path d="M0 0 C5.28 0 10.56 0 16 0 C15.67 0.99 15.34 1.98 15 3 C13.06318839 3.08107583 11.1254066 3.13922475 9.1875 3.1875 C8.10855469 3.22230469 7.02960938 3.25710938 5.91796875 3.29296875 C3 3 3 3 0 0 Z " fill="#629ECF" transform="translate(282,346)"/>
<path d="M0 0 C-1 3 -1 3 -3.3984375 4.203125 C-4.38070312 4.54859375 -5.36296875 4.8940625 -6.375 5.25 C-7.35210937 5.60578125 -8.32921875 5.9615625 -9.3359375 6.328125 C-12 7 -12 7 -15 6 C-13.06629769 4.99267601 -11.12789694 3.99436712 -9.1875 3 C-8.10855469 2.443125 -7.02960938 1.88625 -5.91796875 1.3125 C-3 0 -3 0 0 0 Z " fill="#6BA6D9" transform="translate(183,246)"/>
<path d="M0 0 C0.99 0 1.98 0 3 0 C2.40075776 4.19469571 1.42500059 8.00999834 0 12 C-0.33 12 -0.66 12 -1 12 C-1.22162329 10.37675914 -1.42689803 8.751279 -1.625 7.125 C-1.74101562 6.22007812 -1.85703125 5.31515625 -1.9765625 4.3828125 C-1.98429687 3.59648437 -1.99203125 2.81015625 -2 2 C-1.34 1.34 -0.68 0.68 0 0 Z " fill="#67ACE3" transform="translate(296,239)"/>
<path d="M0 0 C0 0.66 0 1.32 0 2 C-1.65 2 -3.3 2 -5 2 C-5 2.66 -5 3.32 -5 4 C-6.88069983 6.6120831 -7.97535795 6.99468505 -11.1875 7.6875 C-12.5796875 7.8421875 -12.5796875 7.8421875 -14 8 C-14 7.34 -14 6.68 -14 6 C-12.390625 4.74609375 -12.390625 4.74609375 -10.25 3.4375 C-9.55390625 3.00308594 -8.8578125 2.56867188 -8.140625 2.12109375 C-5.41241102 0.69226636 -3.07778502 0 0 0 Z " fill="#67ABE1" transform="translate(114,109)"/>
<path d="M0 0 C0.33 0 0.66 0 1 0 C1 1.65 1 3.3 1 5 C0.34 5 -0.32 5 -1 5 C-1.33 6.98 -1.66 8.96 -2 11 C-3.32 10.67 -4.64 10.34 -6 10 C-4.63201951 6.0100569 -2.79608023 3.15686477 0 0 Z " fill="#61A3D3" transform="translate(262,320)"/>
<path d="M0 0 C0.33 1.32 0.66 2.64 1 4 C0.34 4 -0.32 4 -1 4 C-1 4.66 -1 5.32 -1 6 C0.65 6.33 2.3 6.66 4 7 C1.42786866 8.61949011 0.32330841 9.04408751 -2.75 8.625 C-3.86375 8.315625 -3.86375 8.315625 -5 8 C-3.35 5.36 -1.7 2.72 0 0 Z " fill="#79AFDD" transform="translate(284,290)"/>
<path d="M0 0 C0.66 0 1.32 0 2 0 C2 0.99 2 1.98 2 3 C2.99 2.34 3.98 1.68 5 1 C7.33199388 0.92094936 9.66832622 0.91201231 12 1 C9.49484216 3.50515784 7.38931835 4.05099086 4 5 C2.68 5 1.36 5 0 5 C0 3.35 0 1.7 0 0 Z " fill="#669ED4" transform="translate(306,288)"/>
<path d="M0 0 C0.66 0 1.32 0 2 0 C0.125 4.75 0.125 4.75 -1 7 C-1.06996014 8.70702735 -1.08440154 10.41668003 -1.0625 12.125 C-1.04896484 13.49011719 -1.04896484 13.49011719 -1.03515625 14.8828125 C-1.02355469 15.58148438 -1.01195312 16.28015625 -1 17 C-1.99 16.67 -2.98 16.34 -4 16 C-4 11.71 -4 7.42 -4 3 C-3.01 2.67 -2.02 2.34 -1 2 C-0.67 1.34 -0.34 0.68 0 0 Z " fill="#61A1D6" transform="translate(236,256)"/>
<path d="M0 0 C1.32 0 2.64 0 4 0 C2.7820245 3.65392651 1.85603494 3.95831699 -1.4375 5.75 C-2.64212891 6.42289063 -2.64212891 6.42289063 -3.87109375 7.109375 C-4.92490234 7.55023438 -4.92490234 7.55023438 -6 8 C-6.66 7.67 -7.32 7.34 -8 7 C-7.67 6.01 -7.34 5.02 -7 4 C-5.35 4 -3.7 4 -2 4 C-1.34 2.68 -0.68 1.36 0 0 Z " fill="#68A9DC" transform="translate(171,239)"/>
<path d="M0 0 C0.99 0.33 1.98 0.66 3 1 C3 1.99 3 2.98 3 4 C3.66 4.33 4.32 4.66 5 5 C1.52674819 6.1577506 -1.36067448 6.06866652 -5 6 C-4.67 5.34 -4.34 4.68 -4 4 C-3.34 4 -2.68 4 -2 4 C-2 3.34 -2 2.68 -2 2 C-1.34 2 -0.68 2 0 2 C0 1.34 0 0.68 0 0 Z " fill="#4095D8" transform="translate(306,350)"/>
<path d="M0 0 C2.50037734 2.17424117 3.43628586 3.73045798 4 7 C1.50935112 7.68707555 -0.37886292 8 -3 8 C-2.5359375 7.13375 -2.5359375 7.13375 -2.0625 6.25 C-1.07416636 4.15705816 -0.4831387 2.25464725 0 0 Z " fill="#4D9EDE" transform="translate(213,286)"/>
<path d="M0 0 C3.11197356 1.49835764 6.08835016 3.13977927 9 5 C9 5.33 9 5.66 9 6 C6.03 6 3.06 6 0 6 C0 4.02 0 2.04 0 0 Z " fill="#5398D6" transform="translate(236,277)"/>
<path d="M0 0 C1.32 0 2.64 0 4 0 C4.33 2.31 4.66 4.62 5 7 C4.01 7 3.02 7 2 7 C-0.13324818 4.86675182 -0.53238345 3.8992226 -1 1 C-0.67 0.67 -0.34 0.34 0 0 Z " fill="#398FD8" transform="translate(234,207)"/>
<path d="M0 0 C1.32 0.33 2.64 0.66 4 1 C3.67 4.3 3.34 7.6 3 11 C1 7 1 7 1 4 C0.01 3.67 -0.98 3.34 -2 3 C-1.34 2.01 -0.68 1.02 0 0 Z " fill="#4091D7" transform="translate(186,307)"/>
<path d="M0 0 C0.66 0.66 1.32 1.32 2 2 C1.62793814 6.34072171 -0.22951915 10.07415115 -2 14 C-2.33 14 -2.66 14 -3 14 C-3.16488152 9.71308042 -3.24795152 6.70250838 -1 3 C-0.67 2.01 -0.34 1.02 0 0 Z " fill="#6CA9D9" transform="translate(202,264)"/>
<path d="M0 0 C3.49413605 2.86698342 5.28836874 4.84150148 5.8125 9.3125 C5.874375 10.529375 5.93625 11.74625 6 13 C3.37613513 9.93882432 3 9.26826873 3 5 C1.68 4.67 0.36 4.34 -1 4 C-0.67 2.68 -0.34 1.36 0 0 Z " fill="#7AB2DC" transform="translate(298,187)"/>
<path d="M0 0 C1.65 0 3.3 0 5 0 C5 0.66 5 1.32 5 2 C5.928125 2.2165625 5.928125 2.2165625 6.875 2.4375 C9 3 9 3 11 4 C11 4.66 11 5.32 11 6 C11.66 6 12.32 6 13 6 C12.67 6.66 12.34 7.32 12 8 C10.02 7.01 8.04 6.02 6 5 C6 4.34 6 3.68 6 3 C5.34 3 4.68 3 4 3 C4 2.34 4 1.68 4 1 C2.68 0.67 1.36 0.34 0 0 Z " fill="#76AFDC" transform="translate(389,141)"/>
<path d="M0 0 C0.99 0 1.98 0 3 0 C3 2.31 3 4.62 3 7 C1.02 7 -0.96 7 -3 7 C-1.125 1.125 -1.125 1.125 0 0 Z " fill="#2686D6" transform="translate(187,301)"/>
<path d="M0 0 C2 1 2 1 2 1 Z M-3 1 C-2.01 1 -1.02 1 0 1 C0 1.66 0 2.32 0 3 C1.32 3 2.64 3 4 3 C4.33 4.32 4.66 5.64 5 7 C4.236875 6.690625 3.47375 6.38125 2.6875 6.0625 C0.81210323 5.32106407 -1.08684652 4.63771783 -3 4 C-3 3.01 -3 2.02 -3 1 Z " fill="#66A6D9" transform="translate(273,338)"/>
<path d="M0 0 C0.66 1.32 1.32 2.64 2 4 C0.68 4 -0.64 4 -2 4 C-1.67 5.98 -1.34 7.96 -1 10 C-2.89213369 7.61426621 -4.02391783 5.92824652 -5 3 C-4.34 2.34 -3.68 1.68 -3 1 C-2.01 1.33 -1.02 1.66 0 2 C0 1.34 0 0.68 0 0 Z " fill="#479ADF" transform="translate(198,255)"/>
<path d="M0 0 C0.93065133 2.60582371 1.14917407 3.64198224 0.0625 6.25 C-0.4634375 7.11625 -0.4634375 7.11625 -1 8 C-1.99 8 -2.98 8 -4 8 C-4 8.99 -4 9.98 -4 11 C-4.66 10.67 -5.32 10.34 -6 10 C-5.67 9.01 -5.34 8.02 -5 7 C-4.34 7 -3.68 7 -3 7 C-2.87625 6.401875 -2.7525 5.80375 -2.625 5.1875 C-2 3 -2 3 0 0 Z " fill="#73ABDA" transform="translate(228,239)"/>
<path d="M0 0 C0.33 0.66 0.66 1.32 1 2 C1.66 2 2.32 2 3 2 C3 4.64 3 7.28 3 10 C2.01 10 1.02 10 0 10 C0 6.7 0 3.4 0 0 Z " fill="#589BD0" transform="translate(188,225)"/>
<path d="M0 0 C2.97 0.33 5.94 0.66 9 1 C9.33 2.32 9.66 3.64 10 5 C8.51800098 4.55090939 7.03944764 4.09043436 5.5625 3.625 C4.73878906 3.36976563 3.91507812 3.11453125 3.06640625 2.8515625 C1 2 1 2 0 0 Z " fill="#61A4DA" transform="translate(103,387)"/>
<path d="M0 0 C1.65 1.65 3.3 3.3 5 5 C4.01 5 3.02 5 2 5 C2 5.66 2 6.32 2 7 C1.01 7.33 0.02 7.66 -1 8 C-2.2077558 4.37673261 -1.54311128 3.35853631 0 0 Z " fill="#5CA2E1" transform="translate(235,318)"/>
<path d="M0 0 C1.32 0.99 2.64 1.98 4 3 C4 3.66 4 4.32 4 5 C2.68 5 1.36 5 0 5 C-0.33 6.65 -0.66 8.3 -1 10 C-1.66 10 -2.32 10 -3 10 C-2.01 6.7 -1.02 3.4 0 0 Z " fill="#5397D2" transform="translate(303,251)"/>
<path d="M0 0 C2.97 0 5.94 0 9 0 C9 0.33 9 0.66 9 1 C7.14375 1.37125 7.14375 1.37125 5.25 1.75 C1.48560327 2.6710758 -0.53077893 3.91347366 -3 7 C-2.67 5.35 -2.34 3.7 -2 2 C-1.34 2 -0.68 2 0 2 C0 1.34 0 0.68 0 0 Z " fill="#2B7CC9" transform="translate(232,236)"/>
<path d="M0 0 C2.64 0.33 5.28 0.66 8 1 C8 1.66 8 2.32 8 3 C8.66 3.33 9.32 3.66 10 4 C8.906875 3.773125 7.81375 3.54625 6.6875 3.3125 C3.09468727 2.59853617 3.09468727 2.59853617 1.0625 4.4375 C0.711875 4.953125 0.36125 5.46875 0 6 C0 4.02 0 2.04 0 0 Z " fill="#2885D1" transform="translate(258,346)"/>
<path d="M0 0 C-0.66 0 -1.32 0 -2 0 C-2 0.99 -2 1.98 -2 3 C-5.63 2.67 -9.26 2.34 -13 2 C-13 1.34 -13 0.68 -13 0 C-11.39679026 -0.19551338 -9.79237014 -0.38111983 -8.1875 -0.5625 C-7.29417969 -0.66691406 -6.40085937 -0.77132813 -5.48046875 -0.87890625 C-3 -1 -3 -1 0 0 Z " fill="#74ADDB" transform="translate(285,307)"/>
<path d="M0 0 C1.98 0.66 3.96 1.32 6 2 C5.01 2.495 5.01 2.495 4 3 C4 3.66 4 4.32 4 5 C5.32 5.33 6.64 5.66 8 6 C6.35 6.33 4.7 6.66 3 7 C2.690625 6.21625 2.38125 5.4325 2.0625 4.625 C1.07124962 2.07669872 1.07124962 2.07669872 0 0 Z " fill="#53A4E4" transform="translate(179,296)"/>
<path d="M0 0 C1 3 1 3 0.0625 5.1875 C-0.4634375 6.0846875 -0.4634375 6.0846875 -1 7 C-1.66 7 -2.32 7 -3 7 C-3.66 5.35 -4.32 3.7 -5 2 C-3.35 1.34 -1.7 0.68 0 0 Z " fill="#6CAEDC" transform="translate(294,251)"/>
<path d="M0 0 C1.9375 0.8125 1.9375 0.8125 4 2 C4.33 2.99 4.66 3.98 5 5 C2.69 5 0.38 5 -2 5 C-1.34 3.35 -0.68 1.7 0 0 Z " fill="#4994D2" transform="translate(256,220)"/>
<path d="M0 0 C0.33 0 0.66 0 1 0 C1 1.98 1 3.96 1 6 C1.66 6 2.32 6 3 6 C3 6.99 3 7.98 3 9 C2.34 9 1.68 9 1 9 C1 11.31 1 13.62 1 16 C0.67 16 0.34 16 0 16 C0 10.72 0 5.44 0 0 Z " fill="#2974BA" transform="translate(197,201)"/>
<path d="M0 0 C0.33 0 0.66 0 1 0 C1 1.98 1 3.96 1 6 C1.66 6.33 2.32 6.66 3 7 C2.34 8.65 1.68 10.3 1 12 C0.67 12 0.34 12 0 12 C-0.19401633 10.18818595 -0.38004375 8.37551468 -0.5625 6.5625 C-0.66691406 5.55316406 -0.77132813 4.54382813 -0.87890625 3.50390625 C-0.91886719 2.67761719 -0.95882813 1.85132813 -1 1 C-0.67 0.67 -0.34 0.34 0 0 Z " fill="#58A3DB" transform="translate(312,190)"/>
<path d="M0 0 C2.31 0 4.62 0 7 0 C6.67 0.66 6.34 1.32 6 2 C5.34 2 4.68 2 4 2 C4 2.66 4 3.32 4 4 C2.68 4.33 1.36 4.66 0 5 C0 3.35 0 1.7 0 0 Z " fill="#4E9CDB" transform="translate(263,185)"/>
<path d="M0 0 C0 0.66 0 1.32 0 2 C0.66 2 1.32 2 2 2 C2 2.66 2 3.32 2 4 C-0.3125 4.625 -0.3125 4.625 -3 5 C-3.99 4.34 -4.98 3.68 -6 3 C-2.25 0 -2.25 0 0 0 Z " fill="#72AEDC" transform="translate(252,335)"/>
<path d="M0 0 C2.37948772 0.17625835 3.70225849 0.69719773 5.37890625 2.40234375 C6.62115486 3.90649092 7.81376056 5.45129851 9 7 C8.01 7 7.02 7 6 7 C5.34 6.01 4.68 5.02 4 4 C3.01 3.67 2.02 3.34 1 3 C0.67 2.01 0.34 1.02 0 0 Z " fill="#64A7DB" transform="translate(153,280)"/>
<path d="M0 0 C1.98 0.99 1.98 0.99 4 2 C4 6.29 4 10.58 4 15 C3.67 15 3.34 15 3 15 C2.92652344 14.00419922 2.92652344 14.00419922 2.8515625 12.98828125 C2.28874188 6.2887764 2.28874188 6.2887764 0 0 Z " fill="#8CC6E9" transform="translate(347,256)"/>
<path d="M0 0 C1.32 0.33 2.64 0.66 4 1 C3.34 2.98 2.68 4.96 2 7 C1.34 6.01 0.68 5.02 0 4 C-0.66 4 -1.32 4 -2 4 C-2 3.34 -2 2.68 -2 2 C-1.34 2 -0.68 2 0 2 C0 1.34 0 0.68 0 0 Z " fill="#287CD0" transform="translate(219,258)"/>
<path d="M0 0 C3.32901247 2.21934164 3.75023244 3.34683329 5 7 C1.62496331 5.8141763 -0.64722731 4.72426311 -3 2 C-2.01 1.34 -1.02 0.68 0 0 Z " fill="#69AFE2" transform="translate(334,241)"/>
<path d="M0 0 C1.98 0.66 3.96 1.32 6 2 C6 3.32 6 4.64 6 6 C5.34 6 4.68 6 4 6 C3.67 5.34 3.34 4.68 3 4 C2.01 3.67 1.02 3.34 0 3 C0 2.01 0 1.02 0 0 Z " fill="#3D92D6" transform="translate(224,336)"/>
<path d="M0 0 C1.1446875 0.2784375 1.1446875 0.2784375 2.3125 0.5625 C5.08967375 1.22819173 5.08967375 1.22819173 8 0 C7.34 1.32 6.68 2.64 6 4 C4.68 4 3.36 4 2 4 C1.34 2.68 0.68 1.36 0 0 Z " fill="#78AED9" transform="translate(246,318)"/>
<path d="M0 0 C0.99 0.99 1.98 1.98 3 3 C2.67 3.99 2.34 4.98 2 6 C-0.475 5.01 -0.475 5.01 -3 4 C-2.67 3.01 -2.34 2.02 -2 1 C-1.34 1.33 -0.68 1.66 0 2 C0 1.34 0 0.68 0 0 Z " fill="#4896D9" transform="translate(229,310)"/>
<path d="M0 0 C2 2 2 2 2.1953125 3.9453125 C2.13020833 5.96354167 2.06510417 7.98177083 2 10 C1.34 10 0.68 10 0 10 C-1.125 2.25 -1.125 2.25 0 0 Z " fill="#77AFDA" transform="translate(301,304)"/>
<path d="M0 0 C0.12375 0.598125 0.2475 1.19625 0.375 1.8125 C0.95475985 4.26231348 0.95475985 4.26231348 3 7 C2.01 7 1.02 7 0 7 C-2.1875 4 -2.1875 4 -4 1 C-2.68 0.67 -1.36 0.34 0 0 Z " fill="#62A4D8" transform="translate(267,214)"/>
<path d="M0 0 C3.057952 1.73559438 5.63379989 3.38472619 8 6 C5.125 5.8125 5.125 5.8125 2 5 C0.625 2.4375 0.625 2.4375 0 0 Z " fill="#65A5D9" transform="translate(257,341)"/>
<path d="M0 0 C1.32 0.33 2.64 0.66 4 1 C3.67 1.99 3.34 2.98 3 4 C1.35 4.33 -0.3 4.66 -2 5 C-2 4.01 -2 3.02 -2 2 C-1.34 2 -0.68 2 0 2 C0 1.34 0 0.68 0 0 Z " fill="#2B89D6" transform="translate(325,295)"/>
<path d="M0 0 C0.33 0.66 0.66 1.32 1 2 C0.34 2 -0.32 2 -1 2 C-1.66 3.98 -2.32 5.96 -3 8 C-3.66 7.67 -4.32 7.34 -5 7 C-4.67 5.02 -4.34 3.04 -4 1 C-2.68 0.67 -1.36 0.34 0 0 Z " fill="#6DABDC" transform="translate(274,291)"/>
<path d="M0 0 C1.64350079 3.28700157 2.41321669 5.47930015 3 9 C1.68 9.33 0.36 9.66 -1 10 C-0.67 6.7 -0.34 3.4 0 0 Z " fill="#70A9D7" transform="translate(296,286)"/>
<path d="M0 0 C-0.33 0.99 -0.66 1.98 -1 3 C-3.31 3.33 -5.62 3.66 -8 4 C-8 3.34 -8 2.68 -8 2 C-4.91190305 0.23537317 -3.76687864 0 0 0 Z " fill="#2581D2" transform="translate(234,288)"/>
<path d="M0 0 C1.65 0 3.3 0 5 0 C4.625 2.4375 4.625 2.4375 4 5 C3.01 5.495 3.01 5.495 2 6 C1.34 4.02 0.68 2.04 0 0 Z " fill="#4690D3" transform="translate(217,275)"/>
<path d="M0 0 C0.33 0 0.66 0 1 0 C1.33 1.65 1.66 3.3 2 5 C2.33 5 2.66 5 3 5 C3 7.31 3 9.62 3 12 C1.09598862 10.09598862 0.06479561 8.66574314 -0.19921875 5.953125 C-0.1886578 3.96766727 -0.09915043 1.9830086 0 0 Z " fill="#93C2E5" transform="translate(158,263)"/>
<path d="M0 0 C0 1.65 0 3.3 0 5 C-0.66 5 -1.32 5 -2 5 C-2 4.01 -2 3.02 -2 2 C-2.99 2.33 -3.98 2.66 -5 3 C-7.1875 2.0625 -7.1875 2.0625 -9 1 C-5.94152152 0.45627049 -3.11227195 0 0 0 Z " fill="#2481D4" transform="translate(192,245)"/>
<path d="M0 0 C0.33 0.66 0.66 1.32 1 2 C-1.40436026 5.60654039 -2.94679607 5.85452932 -7 7 C-7 6.34 -7 5.68 -7 5 C-5.46875 3.7109375 -5.46875 3.7109375 -3.5 2.375 C-2.8503125 1.92898437 -2.200625 1.48296875 -1.53125 1.0234375 C-1.0259375 0.68570313 -0.520625 0.34796875 0 0 Z " fill="#84B6DF" transform="translate(267,196)"/>
<path d="M0 0 C1.98 0 3.96 0 6 0 C6.33 1.32 6.66 2.64 7 4 C5.35 3.67 3.7 3.34 2 3 C2 2.34 2 1.68 2 1 C1.34 0.67 0.68 0.34 0 0 Z " fill="#4191D3" transform="translate(250,339)"/>
<path d="M0 0 C1.32 0.66 2.64 1.32 4 2 C4 2.66 4 3.32 4 4 C3.38125 4.12375 2.7625 4.2475 2.125 4.375 C-0.19120832 4.87197356 -0.19120832 4.87197356 -2 7 C-1.42415568 4.61435923 -0.77772405 2.33317216 0 0 Z " fill="#72A8D6" transform="translate(207,278)"/>
<path d="M0 0 C1.32 0.66 2.64 1.32 4 2 C4 2.99 4 3.98 4 5 C2.35 5 0.7 5 -1 5 C-0.67 3.35 -0.34 1.7 0 0 Z " fill="#2A83CF" transform="translate(194,252)"/>
<path d="M0 0 C0.66 0 1.32 0 2 0 C2.33 1.32 2.66 2.64 3 4 C1.68 4.99 0.36 5.98 -1 7 C-1.04254356 5.00045254 -1.04080783 2.99958364 -1 1 C-0.67 0.67 -0.34 0.34 0 0 Z " fill="#4198DB" transform="translate(157,246)"/>
<path d="M0 0 C1.24546405 2.49092811 0.7767578 3.41080733 0 6 C-1.65 6.33 -3.3 6.66 -5 7 C-5 6.34 -5 5.68 -5 5 C-4.34 5 -3.68 5 -3 5 C-3 4.34 -3 3.68 -3 3 C-2.34 3 -1.68 3 -1 3 C-0.67 2.01 -0.34 1.02 0 0 Z " fill="#6BA5D9" transform="translate(247,215)"/>
<path d="M0 0 C0.33 0.99 0.66 1.98 1 3 C3.01508358 3.73323796 3.01508358 3.73323796 5 4 C3.02 4.66 1.04 5.32 -1 6 C-1.33 4.35 -1.66 2.7 -2 1 C-1.34 0.67 -0.68 0.34 0 0 Z " fill="#54A6E0" transform="translate(276,177)"/>
<path d="M0 0 C0.33 0.66 0.66 1.32 1 2 C2.32 1.67 3.64 1.34 5 1 C5 2.65 5 4.3 5 6 C3.35 5.67 1.7 5.34 0 5 C0 3.35 0 1.7 0 0 Z " fill="#3F97E0" transform="translate(219,114)"/>
<path d="M0 0 C2.64 0.99 5.28 1.98 8 3 C7.01 3.99 6.02 4.98 5 6 C4.34 6 3.68 6 3 6 C3 4.68 3 3.36 3 2 C2.01 2 1.02 2 0 2 C0 1.34 0 0.68 0 0 Z " fill="#5EA4DE" transform="translate(272,351)"/>
<path d="M0 0 C0 0.66 0 1.32 0 2 C-5.41538462 3.23076923 -5.41538462 3.23076923 -8.375 2.0625 C-8.91125 1.711875 -9.4475 1.36125 -10 1 C-3.375 0 -3.375 0 0 0 Z " fill="#79B0DB" transform="translate(296,304)"/>
<path d="M0 0 C0.66 0.99 1.32 1.98 2 3 C1.34 3 0.68 3 0 3 C0 4.98 0 6.96 0 9 C-0.99 9.33 -1.98 9.66 -3 10 C-2.01 6.7 -1.02 3.4 0 0 Z " fill="#85B9E1" transform="translate(204,285)"/>
<path d="M0 0 C0.94875 0.350625 1.8975 0.70125 2.875 1.0625 C2.875 2.0525 2.875 3.0425 2.875 4.0625 C-2.875 2.3125 -2.875 2.3125 -5.125 0.0625 C-3.125 -0.9375 -3.125 -0.9375 0 0 Z " fill="#79B6E0" transform="translate(177.125,283.9375)"/>
<path d="M0 0 C0.99 0 1.98 0 3 0 C3.33 1.98 3.66 3.96 4 6 C2.35 4.68 0.7 3.36 -1 2 C-0.67 1.34 -0.34 0.68 0 0 Z " fill="#3A94DC" transform="translate(264,274)"/>
<path d="M0 0 C1.32 1.65 2.64 3.3 4 5 C3.01 6.32 2.02 7.64 1 9 C0.67 6.03 0.34 3.06 0 0 Z " fill="#549CDD" transform="translate(253,215)"/>
<path d="M0 0 C0 0.66 0 1.32 0 2 C0.66 2 1.32 2 2 2 C2.33 2.99 2.66 3.98 3 5 C2.01 5.495 2.01 5.495 1 6 C1 5.01 1 4.02 1 3 C-0.98 3 -2.96 3 -5 3 C-2.25 0 -2.25 0 0 0 Z " fill="#579FDB" transform="translate(232,125)"/>
</svg>
