<?xml version="1.0" encoding="UTF-8"?>
<!DOCTYPE svg PUBLIC "-//W3C//DTD SVG 1.1//EN" "http://www.w3.org/Graphics/SVG/1.1/DTD/svg11.dtd">
<svg xmlns="http://www.w3.org/2000/svg" version="1.1" width="1024px" height="1024px" style="shape-rendering:geometricPrecision; text-rendering:geometricPrecision; image-rendering:optimizeQuality; fill-rule:evenodd; clip-rule:evenodd" xmlns:xlink="http://www.w3.org/1999/xlink">
<g><path style="opacity:0.004" fill="#26a5e8" d="M 411.5,145.5 C 412.833,146.167 412.833,146.167 411.5,145.5 Z"/></g>
<g><path style="opacity:0.999" fill="#17acf8" d="M 491.5,208.5 C 495.387,211.864 499.721,214.697 504.5,217C 512.27,219.74 520.27,221.406 528.5,222C 631.028,221.993 733.695,222.326 836.5,223C 839.478,223.696 842.478,224.196 845.5,224.5C 870.854,233.693 885.354,251.693 889,278.5C 889.667,458.833 889.667,639.167 889,819.5C 884.476,851.523 866.31,870.189 834.5,875.5C 619.333,875.167 404.333,875.5 189.5,876.5C 155.931,870.097 136.931,849.93 132.5,816C 132.333,796.369 132.667,777.202 133.5,758.5C 134.239,758.631 134.906,758.464 135.5,758C 135.345,679.263 135.012,601.263 134.5,524C 135.167,516.333 135.833,508.667 136.5,501C 135.456,498.118 134.79,495.118 134.5,492C 135.254,410.391 135.254,327.724 134.5,244C 135.167,241.333 135.833,238.667 136.5,236C 135.345,223.576 135.179,211.076 136,198.5C 137.041,194.002 138.541,189.669 140.5,185.5C 140.03,184.537 139.363,184.537 138.5,185.5C 148.256,164.597 164.589,152.097 187.5,148C 263.695,146.746 340.028,146.746 416.5,148C 430.071,150.453 442.071,156.12 452.5,165C 461.714,175.879 470.547,187.046 479,198.5C 483.036,202.04 487.203,205.373 491.5,208.5 Z"/></g>
<g><path style="opacity:0.004" fill="#26a1e1" d="M 168.5,151.5 C 169.833,152.167 169.833,152.167 168.5,151.5 Z"/></g>
<g><path style="opacity:0.008" fill="#2aa0df" d="M 151.5,162.5 C 152.833,163.167 152.833,163.167 151.5,162.5 Z"/></g>
<g><path style="opacity:0.012" fill="#2a9edb" d="M 140.5,176.5 C 141.833,177.167 141.833,177.167 140.5,176.5 Z"/></g>
<g><path style="opacity:0.016" fill="#299ddf" d="M 136.5,183.5 C 137.833,184.167 137.833,184.167 136.5,183.5 Z"/></g>
<g><path style="opacity:0.004" fill="#29a3e3" d="M 135.5,186.5 C 136.833,187.167 136.833,187.167 135.5,186.5 Z"/></g>
<g><path style="opacity:0.004" fill="#28a1de" d="M 131.5,200.5 C 132.833,201.167 132.833,201.167 131.5,200.5 Z"/></g>
<g><path style="opacity:0.004" fill="#20a7ec" d="M 491.5,207.5 C 492.833,208.167 492.833,208.167 491.5,207.5 Z"/></g>
<g><path style="opacity:0.004" fill="#25a3e7" d="M 822.5,220.5 C 823.833,221.167 823.833,221.167 822.5,220.5 Z"/></g>
<g><path style="opacity:0.004" fill="#20a2e3" d="M 845.5,224.5 C 845.897,223.475 846.563,223.308 847.5,224C 846.906,224.464 846.239,224.631 845.5,224.5 Z"/></g>
<g><path style="opacity:0.008" fill="#2ba0de" d="M 881.5,250.5 C 882.833,251.167 882.833,251.167 881.5,250.5 Z"/></g>
<g><path style="opacity:0.004" fill="#2aa2df" d="M 882.5,252.5 C 883.833,253.167 883.833,253.167 882.5,252.5 Z"/></g>
<g><path style="opacity:0.004" fill="#26a3e5" d="M 130.5,268.5 C 131.833,269.167 131.833,269.167 130.5,268.5 Z"/></g>
<g><path style="opacity:0.004" fill="#2aa1e1" d="M 889.5,271.5 C 890.525,271.897 890.692,272.563 890,273.5C 889.536,272.906 889.369,272.239 889.5,271.5 Z"/></g>
<g><path style="opacity:0.999" fill="#0580f1" d="M 646.5,286.5 C 638.259,284.88 629.925,284.214 621.5,284.5C 626.746,283.352 632.746,283.185 639.5,284C 642.776,284.181 645.109,285.015 646.5,286.5 Z"/></g>
<g><path style="opacity:0.992" fill="#0581f1" d="M 382.5,285.5 C 380.139,285.674 377.806,286.007 375.5,286.5C 376.027,285.291 377.527,284.625 380,284.5C 381.07,284.528 381.903,284.861 382.5,285.5 Z"/></g>
<g><path style="opacity:0.999" fill="#fcfefe" d="M 420.5,289.5 C 440.806,296.819 459.806,306.485 477.5,318.5C 480.929,322.262 484.929,325.262 489.5,327.5C 496.42,334.296 503.753,340.629 511.5,346.5C 511.897,347.525 512.563,347.692 513.5,347C 531.309,330.004 550.643,315.171 571.5,302.5C 576.484,300.674 581.151,298.341 585.5,295.5C 595.102,291.745 604.768,288.411 614.5,285.5C 617.059,285.802 619.393,285.468 621.5,284.5C 629.925,284.214 638.259,284.88 646.5,286.5C 646.842,287.338 647.508,287.672 648.5,287.5C 656.909,290.906 664.242,295.906 670.5,302.5C 673.17,307.175 675.837,311.841 678.5,316.5C 680.244,322.065 681.577,327.732 682.5,333.5C 682.5,334.167 682.833,334.5 683.5,334.5C 685.264,351.105 685.931,367.771 685.5,384.5C 684.527,386.948 684.194,389.615 684.5,392.5C 683.615,399.143 682.948,405.81 682.5,412.5C 681.566,413.568 681.232,414.901 681.5,416.5C 680.51,420.772 679.844,425.106 679.5,429.5C 678.593,431.657 677.927,433.99 677.5,436.5C 677.244,438.937 676.577,441.271 675.5,443.5C 679.122,444.708 682.789,445.708 686.5,446.5C 708.139,453.652 728.806,462.986 748.5,474.5C 754.599,478.752 760.599,483.252 766.5,488C 772.697,493.031 778.364,498.531 783.5,504.5C 783.328,505.492 783.662,506.158 784.5,506.5C 792.814,517.745 796.481,530.412 795.5,544.5C 794.629,547.003 793.963,549.67 793.5,552.5C 791.643,559.209 788.976,565.543 785.5,571.5C 783.122,573.878 781.122,576.545 779.5,579.5C 774.5,583.833 769.833,588.5 765.5,593.5C 757.892,598.981 750.225,604.481 742.5,610C 734.244,614.288 726.244,618.788 718.5,623.5C 707.918,627.694 697.251,631.694 686.5,635.5C 685.508,635.328 684.842,635.662 684.5,636.5C 681.873,637.092 679.206,637.425 676.5,637.5C 678.756,647.113 680.756,656.78 682.5,666.5C 682.328,667.492 682.662,668.158 683.5,668.5C 686.478,691.089 687.145,713.756 685.5,736.5C 684.509,741.048 683.509,745.715 682.5,750.5C 678.517,772.473 666.184,787.473 645.5,795.5C 638.286,797.182 630.952,797.848 623.5,797.5C 613.959,796.448 604.626,794.448 595.5,791.5C 591.123,788.982 586.456,786.982 581.5,785.5C 571.929,779.706 562.263,773.872 552.5,768C 543.291,760.618 533.957,753.451 524.5,746.5C 520.49,741.657 515.99,737.324 511,733.5C 506.343,736.99 502.177,740.99 498.5,745.5C 484.779,756.557 470.779,767.224 456.5,777.5C 448.668,781.249 441.001,785.249 433.5,789.5C 427.353,791.327 421.353,793.327 415.5,795.5C 382.765,804.503 358.765,794.17 343.5,764.5C 342.537,759.951 341.204,755.617 339.5,751.5C 338.833,746.5 338.167,741.5 337.5,736.5C 337.784,734.585 337.451,732.919 336.5,731.5C 335.318,717.172 335.318,702.839 336.5,688.5C 337.338,688.158 337.672,687.492 337.5,686.5C 338.219,678.131 339.219,669.798 340.5,661.5C 341.338,661.158 341.672,660.492 341.5,659.5C 343.257,652.556 344.424,645.556 345,638.5C 336.583,635.528 328.083,632.861 319.5,630.5C 315.787,628.315 311.787,626.648 307.5,625.5C 299.818,620.992 291.818,616.992 283.5,613.5C 281.371,611.05 278.704,609.383 275.5,608.5C 269.353,603.592 263.02,598.925 256.5,594.5C 252.5,589.833 248.167,585.5 243.5,581.5C 242.92,579.251 241.587,577.585 239.5,576.5C 234.48,568.79 230.813,560.457 228.5,551.5C 228.768,549.901 228.434,548.568 227.5,547.5C 226.655,534.705 229.322,522.705 235.5,511.5C 243.655,501.511 252.655,492.345 262.5,484C 275.146,475.508 288.146,467.675 301.5,460.5C 308.604,458.115 315.604,455.448 322.5,452.5C 323.492,452.672 324.158,452.338 324.5,451.5C 329.833,449.833 335.167,448.167 340.5,446.5C 342.435,445.85 344.435,445.517 346.5,445.5C 346.784,443.585 346.451,441.919 345.5,440.5C 344.294,433.135 342.96,425.802 341.5,418.5C 341.737,417.209 341.404,416.209 340.5,415.5C 340.276,411.821 339.942,408.154 339.5,404.5C 339.768,402.901 339.434,401.568 338.5,400.5C 337.32,381.155 337.32,361.822 338.5,342.5C 339.817,323.365 347.483,307.199 361.5,294C 365.826,290.673 370.492,288.173 375.5,286.5C 377.806,286.007 380.139,285.674 382.5,285.5C 395.454,283.821 408.121,285.155 420.5,289.5 Z"/></g>
<g><path style="opacity:1" fill="#188cf2" d="M 614.5,285.5 C 604.768,288.411 595.102,291.745 585.5,295.5C 594.403,290.198 604.069,286.865 614.5,285.5 Z"/></g>
<g><path style="opacity:1" fill="#1d90f2" d="M 648.5,287.5 C 648.56,286.957 648.893,286.624 649.5,286.5C 658.295,289.647 665.295,294.98 670.5,302.5C 664.242,295.906 656.909,290.906 648.5,287.5 Z"/></g>
<g><path style="opacity:1" fill="#1f90f3" d="M 420.5,289.5 C 420.735,288.903 421.235,288.57 422,288.5C 442.287,295.554 460.787,305.554 477.5,318.5C 459.806,306.485 440.806,296.819 420.5,289.5 Z"/></g>
<g><path style="opacity:0.996" fill="#088bf2" d="M 585.5,295.5 C 581.151,298.341 576.484,300.674 571.5,302.5C 575.581,299.126 580.247,296.793 585.5,295.5 Z"/></g>
<g><path style="opacity:0.004" fill="#29a3e5" d="M 130.5,300.5 C 131.833,301.167 131.833,301.167 130.5,300.5 Z"/></g>
<g><path style="opacity:1" fill="#1d8ff2" d="M 636.5,313.5 C 630.825,314.274 624.992,314.941 619,315.5C 617.93,315.472 617.097,315.139 616.5,314.5C 623.117,312.57 629.783,312.237 636.5,313.5 Z"/></g>
<g><path style="opacity:0.999" fill="#18abf7" d="M 406.5,315.5 C 406.062,315.435 405.728,315.601 405.5,316C 409.319,317.165 413.152,318.332 417,319.5C 417.765,319.43 418.265,319.097 418.5,318.5C 419.71,318.932 420.71,319.599 421.5,320.5C 427.643,323.737 433.976,326.737 440.5,329.5C 459.612,339.432 476.945,351.932 492.5,367C 475.39,385.573 459.724,405.24 445.5,426C 438.506,426.966 431.506,427.799 424.5,428.5C 423.726,427.853 422.726,427.52 421.5,427.5C 413.975,428.069 407.308,429.403 401.5,431.5C 401.158,432.338 400.492,432.672 399.5,432.5C 397.513,431.657 395.346,430.99 393,430.5C 387.25,432.709 382.083,434.709 377.5,436.5C 377.158,437.338 376.492,437.672 375.5,437.5C 374.791,436.596 373.791,436.263 372.5,436.5C 371.912,430.539 370.579,424.873 368.5,419.5C 367.593,417.343 366.927,415.01 366.5,412.5C 367.156,411.378 367.489,410.045 367.5,408.5C 366.173,400.552 365.506,392.552 365.5,384.5C 365.828,372.322 365.495,360.322 364.5,348.5C 364.232,346.901 364.566,345.568 365.5,344.5C 365.369,345.239 365.536,345.906 366,346.5C 367.347,340.111 368.847,333.778 370.5,327.5C 373.978,318.003 380.812,313.003 391,312.5C 396.411,312.926 401.577,313.926 406.5,315.5 Z"/></g>
<g><path style="opacity:0.999" fill="#18abf7" d="M 636.5,313.5 C 637.492,313.328 638.158,313.662 638.5,314.5C 639.93,316.294 642.263,317.794 645.5,319C 651.306,325.732 654.806,333.565 656,342.5C 656.464,341.906 656.631,341.239 656.5,340.5C 657.581,343.627 658.247,346.96 658.5,350.5C 657.932,368.373 656.932,386.373 655.5,404.5C 655.52,405.726 655.853,406.726 656.5,407.5C 656.737,408.791 656.404,409.791 655.5,410.5C 653.927,414.92 652.593,420.754 651.5,428C 651.528,429.07 651.861,429.903 652.5,430.5C 651.781,432.764 651.448,435.097 651.5,437.5C 626.758,432.115 601.758,428.282 576.5,426C 565.363,409.708 553.696,393.875 541.5,378.5C 538.738,374.561 535.738,370.728 532.5,367C 536.334,364.332 539.667,361.165 542.5,357.5C 554.05,346.954 566.716,337.954 580.5,330.5C 592.304,324.962 603.637,319.962 614.5,315.5C 614.842,314.662 615.508,314.328 616.5,314.5C 617.097,315.139 617.93,315.472 619,315.5C 624.992,314.941 630.825,314.274 636.5,313.5 Z"/></g>
<g><path style="opacity:1" fill="#1088f0" d="M 406.5,315.5 C 410.603,316.09 414.603,317.09 418.5,318.5C 418.265,319.097 417.765,319.43 417,319.5C 413.152,318.332 409.319,317.165 405.5,316C 405.728,315.601 406.062,315.435 406.5,315.5 Z"/></g>
<g><path style="opacity:1" fill="#0787f1" d="M 678.5,316.5 C 681.913,321.81 683.246,327.477 682.5,333.5C 681.577,327.732 680.244,322.065 678.5,316.5 Z"/></g>
<g><path style="opacity:0.992" fill="#178af1" d="M 421.5,320.5 C 428.529,322.182 434.862,325.182 440.5,329.5C 433.976,326.737 427.643,323.737 421.5,320.5 Z"/></g>
<g><path style="opacity:1" fill="#128bf1" d="M 614.5,315.5 C 603.637,319.962 592.304,324.962 580.5,330.5C 590.805,323.352 602.138,318.352 614.5,315.5 Z"/></g>
<g><path style="opacity:1" fill="#2592f2" d="M 489.5,327.5 C 494.129,330.159 498.462,333.326 502.5,337C 505.782,340.109 508.782,343.276 511.5,346.5C 503.753,340.629 496.42,334.296 489.5,327.5 Z"/></g>
<g><path style="opacity:0.992" fill="#1d8bf0" d="M 638.5,314.5 C 643.96,315.652 648.127,318.652 651,323.5C 653.742,328.891 655.575,334.558 656.5,340.5C 656.631,341.239 656.464,341.906 656,342.5C 654.806,333.565 651.306,325.732 645.5,319C 642.263,317.794 639.93,316.294 638.5,314.5 Z"/></g>
<g><path style="opacity:0.004" fill="#28a5e6" d="M 130.5,340.5 C 131.833,341.167 131.833,341.167 130.5,340.5 Z"/></g>
<g><path style="opacity:1" fill="#1388f1" d="M 370.5,327.5 C 368.847,333.778 367.347,340.111 366,346.5C 365.536,345.906 365.369,345.239 365.5,344.5C 365.789,338.328 367.456,332.662 370.5,327.5 Z"/></g>
<g><path style="opacity:0.997" fill="#0e8cf3" d="M 683.5,334.5 C 684.222,334.918 684.722,335.584 685,336.5C 687.838,354.787 688.171,373.121 686,391.5C 685.503,389.19 685.337,386.857 685.5,384.5C 685.931,367.771 685.264,351.105 683.5,334.5 Z"/></g>
<g><path style="opacity:1" fill="#1c8df2" d="M 542.5,357.5 C 539.667,361.165 536.334,364.332 532.5,367C 535.738,370.728 538.738,374.561 541.5,378.5C 537.336,375.168 533.669,371.335 530.5,367C 534.379,363.575 538.379,360.409 542.5,357.5 Z"/></g>
<g><path style="opacity:0.995" fill="#1a90f2" d="M 658.5,350.5 C 660.045,369.577 659.378,388.577 656.5,407.5C 655.853,406.726 655.52,405.726 655.5,404.5C 656.932,386.373 657.932,368.373 658.5,350.5 Z"/></g>
<g><path style="opacity:0.999" fill="#178df2" d="M 338.5,342.5 C 337.32,361.822 337.32,381.155 338.5,400.5C 338.649,401.552 338.483,402.552 338,403.5C 334.976,382.155 334.976,360.822 338,339.5C 338.483,340.448 338.649,341.448 338.5,342.5 Z"/></g>
<g><path style="opacity:0.004" fill="#27a4e6" d="M 130.5,372.5 C 131.833,373.167 131.833,373.167 130.5,372.5 Z"/></g>
<g><path style="opacity:0.992" fill="#1599f5" d="M 364.5,348.5 C 365.495,360.322 365.828,372.322 365.5,384.5C 364.566,385.568 364.232,386.901 364.5,388.5C 363.233,375.314 363.233,361.98 364.5,348.5 Z"/></g>
<g><path style="opacity:0.004" fill="#26a4e5" d="M 130.5,388.5 C 131.833,389.167 131.833,389.167 130.5,388.5 Z"/></g>
<g><path style="opacity:0.999" fill="#17aaf7" d="M 526.5,404.5 C 530.922,408.587 534.589,413.254 537.5,418.5C 537.859,420.371 538.859,421.871 540.5,423C 521.167,423.667 501.833,423.667 482.5,423C 483.252,422.329 483.586,421.496 483.5,420.5C 483.738,418.596 484.738,417.262 486.5,416.5C 489.645,413.54 492.312,410.207 494.5,406.5C 500.145,400.52 505.812,394.52 511.5,388.5C 516.522,393.854 521.522,399.187 526.5,404.5 Z"/></g>
<g><path style="opacity:0.998" fill="#0684f2" d="M 365.5,384.5 C 365.506,392.552 366.173,400.552 367.5,408.5C 367.489,410.045 367.156,411.378 366.5,412.5C 365.363,404.543 364.697,396.543 364.5,388.5C 364.232,386.901 364.566,385.568 365.5,384.5 Z"/></g>
<g><path style="opacity:0.996" fill="#198ff2" d="M 526.5,404.5 C 521.522,399.187 516.522,393.854 511.5,388.5C 505.812,394.52 500.145,400.52 494.5,406.5C 499.4,399.26 505.067,392.593 511.5,386.5C 517.27,391.93 522.27,397.93 526.5,404.5 Z"/></g>
<g><path style="opacity:1" fill="#228cf1" d="M 684.5,392.5 C 685.158,393.793 685.492,395.293 685.5,397C 685.209,403.663 684.209,408.829 682.5,412.5C 682.948,405.81 683.615,399.143 684.5,392.5 Z"/></g>
<g><path style="opacity:0.004" fill="#27a5e5" d="M 130.5,412.5 C 131.833,413.167 131.833,413.167 130.5,412.5 Z"/></g>
<g><path style="opacity:1" fill="#128bf2" d="M 339.5,404.5 C 339.942,408.154 340.276,411.821 340.5,415.5C 340.631,416.239 340.464,416.906 340,417.5C 338.553,413.042 338.386,408.709 339.5,404.5 Z"/></g>
<g><path style="opacity:0.996" fill="#188cf3" d="M 494.5,406.5 C 492.312,410.207 489.645,413.54 486.5,416.5C 488.208,412.428 490.874,409.095 494.5,406.5 Z"/></g>
<g><path style="opacity:0.996" fill="#218df2" d="M 681.5,416.5 C 682.139,417.097 682.472,417.93 682.5,419C 681.992,423.346 680.992,426.846 679.5,429.5C 679.844,425.106 680.51,420.772 681.5,416.5 Z"/></g>
<g><path style="opacity:1" fill="#0c87f0" d="M 655.5,410.5 C 654.933,417.236 653.933,423.902 652.5,430.5C 651.861,429.903 651.528,429.07 651.5,428C 652.593,420.754 653.927,414.92 655.5,410.5 Z"/></g>
<g><path style="opacity:0.999" fill="#2089ef" d="M 537.5,418.5 C 540.002,420.17 542.002,422.336 543.5,425C 541.5,425.167 539.5,425.333 537.5,425.5C 518.099,424.384 498.765,424.218 479.5,425C 480.328,423.008 481.661,421.508 483.5,420.5C 483.586,421.496 483.252,422.329 482.5,423C 501.833,423.667 521.167,423.667 540.5,423C 538.859,421.871 537.859,420.371 537.5,418.5 Z"/></g>
<g><path style="opacity:0.999" fill="#0586f1" d="M 424.5,428.5 C 416.82,429.407 409.153,430.407 401.5,431.5C 407.308,429.403 413.975,428.069 421.5,427.5C 422.726,427.52 423.726,427.853 424.5,428.5 Z"/></g>
<g><path style="opacity:0.992" fill="#148cf2" d="M 368.5,419.5 C 370.579,424.873 371.912,430.539 372.5,436.5C 373.791,436.263 374.791,436.596 375.5,437.5C 374.417,437.539 373.417,437.873 372.5,438.5C 370.375,432.335 369.042,426.002 368.5,419.5 Z"/></g>
<g><path style="opacity:0.996" fill="#258ff1" d="M 341.5,418.5 C 342.96,425.802 344.294,433.135 345.5,440.5C 345.565,440.938 345.399,441.272 345,441.5C 342.295,433.859 341.129,426.192 341.5,418.5 Z"/></g>
<g><path style="opacity:1" fill="#1191f3" d="M 399.5,432.5 C 392.141,433.705 384.807,435.039 377.5,436.5C 382.083,434.709 387.25,432.709 393,430.5C 395.346,430.99 397.513,431.657 399.5,432.5 Z"/></g>
<g><path style="opacity:0.996" fill="#118bf1" d="M 677.5,436.5 C 678.417,438.662 678.417,440.995 677.5,443.5C 680.988,443.705 684.321,444.539 687.5,446C 687.272,446.399 686.938,446.565 686.5,446.5C 682.789,445.708 679.122,444.708 675.5,443.5C 676.577,441.271 677.244,438.937 677.5,436.5 Z"/></g>
<g><path style="opacity:1" fill="#0d89f2" d="M 340.5,446.5 C 335.167,448.167 329.833,449.833 324.5,451.5C 324.062,451.565 323.728,451.399 323.5,451C 329.134,448.27 334.8,446.77 340.5,446.5 Z"/></g>
<g><path style="opacity:1" fill="#148df3" d="M 539.5,450.5 C 519.001,451.359 498.335,452.026 477.5,452.5C 472.654,452.499 467.988,452.166 463.5,451.5C 488.823,450.638 514.156,450.304 539.5,450.5 Z"/></g>
<g><path style="opacity:0.999" fill="#17abf7" d="M 539.5,450.5 C 541.099,450.232 542.432,450.566 543.5,451.5C 549.685,452.288 556.018,452.955 562.5,453.5C 565.579,456.65 567.913,460.317 569.5,464.5C 578.585,480.34 587.918,496.007 597.5,511.5C 601.838,521.341 606.838,530.841 612.5,540C 607.906,548.41 603.573,556.91 599.5,565.5C 592.586,579.002 584.919,592.002 576.5,604.5C 573.421,607.65 571.087,611.317 569.5,615.5C 566.811,621.035 563.478,626.202 559.5,631C 557.19,631.497 554.857,631.663 552.5,631.5C 522.645,630.925 492.645,630.092 462.5,629C 460.512,625.499 458.178,622.332 455.5,619.5C 441.071,598.991 428.404,577.324 417.5,554.5C 415.509,549.85 413.509,545.183 411.5,540.5C 414.176,534.484 416.843,528.484 419.5,522.5C 422.258,519.322 424.258,515.655 425.5,511.5C 429.174,507.493 431.841,502.827 433.5,497.5C 437,490.494 441,483.827 445.5,477.5C 449.331,472.511 452.664,467.178 455.5,461.5C 456.778,456.887 459.445,453.554 463.5,451.5C 467.988,452.166 472.654,452.499 477.5,452.5C 498.335,452.026 519.001,451.359 539.5,450.5 Z"/></g>
<g><path style="opacity:0.004" fill="#26a5e7" d="M 130.5,452.5 C 131.833,453.167 131.833,453.167 130.5,452.5 Z"/></g>
<g><path style="opacity:1" fill="#078af1" d="M 543.5,451.5 C 550.255,450.877 556.588,451.544 562.5,453.5C 556.018,452.955 549.685,452.288 543.5,451.5 Z"/></g>
<g><path style="opacity:1" fill="#2c93f2" d="M 424.5,459.5 C 424.539,458.417 424.873,457.417 425.5,456.5C 424.667,456.167 423.833,455.833 423,455.5C 415.333,456.833 407.667,458.167 400,459.5C 398.93,459.472 398.097,459.139 397.5,458.5C 407.776,456.031 418.109,454.697 428.5,454.5C 427.388,456.419 426.054,458.086 424.5,459.5 Z"/></g>
<g><path style="opacity:0.999" fill="#18a8f7" d="M 424.5,459.5 C 417.556,471.769 410.222,483.769 402.5,495.5C 399.856,498.773 397.689,502.44 396,506.5C 395.148,505.429 394.315,504.429 393.5,503.5C 391.206,500.63 389.872,497.297 389.5,493.5C 387.308,486.09 384.808,478.757 382,471.5C 381.601,471.728 381.435,472.062 381.5,472.5C 380.436,469.814 379.436,466.98 378.5,464C 378.833,463.5 379.167,463 379.5,462.5C 385.475,461.038 391.475,459.705 397.5,458.5C 398.097,459.139 398.93,459.472 400,459.5C 407.667,458.167 415.333,456.833 423,455.5C 423.833,455.833 424.667,456.167 425.5,456.5C 424.873,457.417 424.539,458.417 424.5,459.5 Z"/></g>
<g><path style="opacity:0.996" fill="#1d8bf0" d="M 604.5,454.5 C 602.369,455.314 600.036,455.814 597.5,456C 601.155,460.812 604.155,465.979 606.5,471.5C 602.363,465.845 598.363,460.012 594.5,454C 597.8,454.046 601.134,454.212 604.5,454.5 Z"/></g>
<g><path style="opacity:0.999" fill="#18a9f6" d="M 604.5,454.5 C 609.65,455.377 614.65,456.377 619.5,457.5C 626.361,459.685 634.028,461.352 642.5,462.5C 642.5,463.833 642.5,465.167 642.5,466.5C 640.34,476.65 637.006,486.317 632.5,495.5C 630.441,498.611 628.608,501.944 627,505.5C 623.657,498.803 619.823,492.47 615.5,486.5C 611.749,482.005 608.749,477.005 606.5,471.5C 604.155,465.979 601.155,460.812 597.5,456C 600.036,455.814 602.369,455.314 604.5,454.5 Z"/></g>
<g><path style="opacity:1" fill="#188df3" d="M 322.5,452.5 C 315.604,455.448 308.604,458.115 301.5,460.5C 307.839,457.001 314.506,454.001 321.5,451.5C 322.107,451.624 322.44,451.957 322.5,452.5 Z"/></g>
<g><path style="opacity:0.996" fill="#1388f1" d="M 619.5,457.5 C 627.984,458.414 636.318,460.081 644.5,462.5C 644.006,464.026 643.339,465.359 642.5,466.5C 642.5,465.167 642.5,463.833 642.5,462.5C 634.028,461.352 626.361,459.685 619.5,457.5 Z"/></g>
<g><path style="opacity:1" fill="#168bf2" d="M 455.5,461.5 C 452.664,467.178 449.331,472.511 445.5,477.5C 447.835,471.486 451.169,466.152 455.5,461.5 Z"/></g>
<g><path style="opacity:1" fill="#0683ee" d="M 678.5,471.5 C 676.235,472.342 673.902,472.009 671.5,470.5C 670.029,471.381 669.196,472.714 669,474.5C 668.601,474.272 668.435,473.938 668.5,473.5C 668.491,471.692 668.991,470.025 670,468.5C 672.727,469.798 675.56,470.798 678.5,471.5 Z"/></g>
<g><path style="opacity:0.999" fill="#17abf7" d="M 348.5,470.5 C 349.718,471.161 351.051,471.828 352.5,472.5C 353.234,475.347 354.234,477.347 355.5,478.5C 357.461,482.977 359.127,487.644 360.5,492.5C 359.957,492.56 359.624,492.893 359.5,493.5C 362.801,504.087 367.134,514.087 372.5,523.5C 374.265,529.035 376.598,534.368 379.5,539.5C 378.754,540.736 378.421,542.07 378.5,543.5C 378.672,544.492 378.338,545.158 377.5,545.5C 371.156,556.529 366.156,568.196 362.5,580.5C 360.405,588.784 357.739,596.784 354.5,604.5C 353.164,606.038 351.998,608.372 351,611.5C 330.598,605.202 311.098,596.869 292.5,586.5C 280.051,579.56 269.218,570.56 260,559.5C 259.209,558.255 258.709,556.922 258.5,555.5C 257.68,553.188 256.847,550.854 256,548.5C 255.826,543.649 255.326,538.982 254.5,534.5C 256.654,528.363 259.987,523.03 264.5,518.5C 264.435,518.938 264.601,519.272 265,519.5C 275.54,509.11 287.04,500.11 299.5,492.5C 307.849,488.992 315.849,484.992 323.5,480.5C 328.686,479.244 333.686,477.41 338.5,475C 338.272,474.601 337.938,474.435 337.5,474.5C 340.939,472.796 344.605,471.462 348.5,470.5 Z"/></g>
<g><path style="opacity:1" fill="#1a8ef2" d="M 389.5,493.5 C 386.066,486.876 383.4,479.876 381.5,472.5C 381.435,472.062 381.601,471.728 382,471.5C 384.808,478.757 387.308,486.09 389.5,493.5 Z"/></g>
<g><path style="opacity:0.999" fill="#17abf7" d="M 678.5,471.5 C 679.492,471.328 680.158,471.662 680.5,472.5C 680.062,472.435 679.728,472.601 679.5,473C 687.087,476.139 694.753,478.972 702.5,481.5C 708.419,483.126 713.753,485.793 718.5,489.5C 721.678,492.258 725.345,494.258 729.5,495.5C 733.049,496.723 736.049,498.723 738.5,501.5C 738.5,502.5 738.5,503.5 738.5,504.5C 739.873,504.343 741.207,504.51 742.5,505C 749.304,510.969 755.971,517.136 762.5,523.5C 768.762,533.934 769.096,544.601 763.5,555.5C 762.89,557.434 761.89,559.101 760.5,560.5C 756.03,563.425 751.697,567.258 747.5,572C 747.728,572.399 748.062,572.565 748.5,572.5C 732.456,586.199 714.456,596.866 694.5,604.5C 694.44,603.957 694.107,603.624 693.5,603.5C 686.71,605.98 679.876,608.313 673,610.5C 671.72,610.387 670.887,609.72 670.5,608.5C 669.099,603.797 667.599,599.13 666,594.5C 665.601,594.728 665.435,595.062 665.5,595.5C 660.717,582.496 655.717,569.496 650.5,556.5C 648.07,549.984 645.403,543.651 642.5,537.5C 643.512,536.128 644.512,534.795 645.5,533.5C 651.767,523.624 656.433,512.958 659.5,501.5C 662.6,494.384 665.433,487.05 668,479.5C 668.765,477.934 668.598,476.601 667.5,475.5C 667.328,474.508 667.662,473.842 668.5,473.5C 668.435,473.938 668.601,474.272 669,474.5C 669.196,472.714 670.029,471.381 671.5,470.5C 673.902,472.009 676.235,472.342 678.5,471.5 Z"/></g>
<g><path style="opacity:1" fill="#198af1" d="M 355.5,478.5 C 354.234,477.347 353.234,475.347 352.5,472.5C 351.051,471.828 349.718,471.161 348.5,470.5C 350.166,469.334 351.833,469.334 353.5,470.5C 354.482,473.096 355.149,475.762 355.5,478.5 Z"/></g>
<g><path style="opacity:1" fill="#0f8bf2" d="M 680.5,472.5 C 688.231,474.738 695.565,477.738 702.5,481.5C 694.753,478.972 687.087,476.139 679.5,473C 679.728,472.601 680.062,472.435 680.5,472.5 Z"/></g>
<g><path style="opacity:1" fill="#148cf3" d="M 337.5,474.5 C 337.938,474.435 338.272,474.601 338.5,475C 333.686,477.41 328.686,479.244 323.5,480.5C 327.844,477.935 332.51,475.935 337.5,474.5 Z"/></g>
<g><path style="opacity:0.992" fill="#1c8df2" d="M 569.5,464.5 C 580.089,479.332 589.422,494.999 597.5,511.5C 587.918,496.007 578.585,480.34 569.5,464.5 Z"/></g>
<g><path style="opacity:1" fill="#188df1" d="M 667.5,475.5 C 668.598,476.601 668.765,477.934 668,479.5C 665.433,487.05 662.6,494.384 659.5,501.5C 661.97,492.758 664.637,484.091 667.5,475.5 Z"/></g>
<g><path style="opacity:1" fill="#128cf3" d="M 323.5,480.5 C 315.849,484.992 307.849,488.992 299.5,492.5C 306.914,487.459 314.914,483.459 323.5,480.5 Z"/></g>
<g><path style="opacity:1" fill="#1c91f4" d="M 748.5,474.5 C 751.94,476.055 755.273,477.888 758.5,480C 763.833,484.333 769.167,488.667 774.5,493C 778.121,496.441 781.121,500.274 783.5,504.5C 778.364,498.531 772.697,493.031 766.5,488C 760.599,483.252 754.599,478.752 748.5,474.5 Z"/></g>
<g><path style="opacity:1" fill="#0387f2" d="M 505.5,491.5 C 504.167,491.5 502.833,491.5 501.5,491.5C 500.991,490.659 501.657,490.159 503.5,490C 507.833,489.333 512.167,489.333 516.5,490C 512.644,490.177 508.977,490.677 505.5,491.5 Z"/></g>
<g><path style="opacity:1" fill="#118df3" d="M 718.5,489.5 C 722.655,490.742 726.322,492.742 729.5,495.5C 725.345,494.258 721.678,492.258 718.5,489.5 Z"/></g>
<g><path style="opacity:0.004" fill="#25a5e7" d="M 131.5,491.5 C 132.833,492.167 132.833,492.167 131.5,491.5 Z"/></g>
<g><path style="opacity:0.999" fill="#fdfefe" d="M 501.5,491.5 C 502.833,491.5 504.167,491.5 505.5,491.5C 509.5,491.5 513.5,491.5 517.5,491.5C 524.104,492.635 530.437,494.635 536.5,497.5C 536.973,498.906 537.973,499.573 539.5,499.5C 544.541,504.374 549.041,509.708 553,515.5C 555.079,519.653 556.579,523.986 557.5,528.5C 559.842,542.028 558.175,555.028 552.5,567.5C 548.904,572.436 544.904,577.103 540.5,581.5C 534.916,584.46 529.249,587.127 523.5,589.5C 516.856,590.443 510.189,590.609 503.5,590C 497.22,588.519 491.22,586.352 485.5,583.5C 485.027,582.094 484.027,581.427 482.5,581.5C 479.833,578.167 476.833,575.167 473.5,572.5C 469.357,565.56 466.357,558.226 464.5,550.5C 462.99,542.091 463.323,533.758 465.5,525.5C 471.361,507.638 483.361,496.305 501.5,491.5 Z"/></g>
<g><path style="opacity:1" fill="#0b88f2" d="M 517.5,491.5 C 524.591,490.639 530.925,492.639 536.5,497.5C 530.437,494.635 524.104,492.635 517.5,491.5 Z"/></g>
<g><path style="opacity:1" fill="#1789f0" d="M 402.5,495.5 C 400.705,500.423 398.372,505.09 395.5,509.5C 394.232,507.696 393.565,505.696 393.5,503.5C 394.315,504.429 395.148,505.429 396,506.5C 397.689,502.44 399.856,498.773 402.5,495.5 Z"/></g>
<g><path style="opacity:1" fill="#1c91f2" d="M 615.5,486.5 C 619.823,492.47 623.657,498.803 627,505.5C 628.608,501.944 630.441,498.611 632.5,495.5C 630.963,500.247 629.13,504.913 627,509.5C 623.14,501.78 619.307,494.114 615.5,486.5 Z"/></g>
<g><path style="opacity:0.996" fill="#168df3" d="M 299.5,492.5 C 287.04,500.11 275.54,509.11 265,519.5C 264.601,519.272 264.435,518.938 264.5,518.5C 274.469,507.528 286.136,498.861 299.5,492.5 Z"/></g>
<g><path style="opacity:0.996" fill="#178cf0" d="M 360.5,492.5 C 364.502,502.84 368.502,513.174 372.5,523.5C 367.134,514.087 362.801,504.087 359.5,493.5C 359.624,492.893 359.957,492.56 360.5,492.5 Z"/></g>
<g><path style="opacity:1" fill="#0f8cf3" d="M 433.5,497.5 C 431.841,502.827 429.174,507.493 425.5,511.5C 427.159,506.173 429.826,501.507 433.5,497.5 Z"/></g>
<g><path style="opacity:1" fill="#1791f3" d="M 738.5,501.5 C 748.077,507.075 756.077,514.409 762.5,523.5C 755.971,517.136 749.304,510.969 742.5,505C 741.207,504.51 739.873,504.343 738.5,504.5C 738.5,503.5 738.5,502.5 738.5,501.5 Z"/></g>
<g><path style="opacity:1" fill="#0b8bf1" d="M 425.5,511.5 C 424.258,515.655 422.258,519.322 419.5,522.5C 420.742,518.345 422.742,514.678 425.5,511.5 Z"/></g>
<g><path style="opacity:1" fill="#138ef3" d="M 539.5,499.5 C 550.43,506.405 556.43,516.072 557.5,528.5C 556.579,523.986 555.079,519.653 553,515.5C 549.041,509.708 544.541,504.374 539.5,499.5 Z"/></g>
<g><path style="opacity:0.996" fill="#178ef4" d="M 235.5,511.5 C 229.322,522.705 226.655,534.705 227.5,547.5C 227.649,548.552 227.483,549.552 227,550.5C 224.054,536.151 226.888,523.151 235.5,511.5 Z"/></g>
<g><path style="opacity:1" fill="#138df2" d="M 795.5,544.5 C 796.481,530.412 792.814,517.745 784.5,506.5C 784.81,505.262 785.31,505.262 786,506.5C 795.372,519.09 798.539,531.757 795.5,544.5 Z"/></g>
<g><path style="opacity:1" fill="#198cf1" d="M 659.5,501.5 C 656.433,512.958 651.767,523.624 645.5,533.5C 649.988,522.686 654.654,512.019 659.5,501.5 Z"/></g>
<g><path style="opacity:0.996" fill="#118cf1" d="M 372.5,523.5 C 375.226,527.946 377.726,532.613 380,537.5C 380.738,539.881 380.238,541.881 378.5,543.5C 378.421,542.07 378.754,540.736 379.5,539.5C 376.598,534.368 374.265,529.035 372.5,523.5 Z"/></g>
<g><path style="opacity:1" fill="#208ff2" d="M 419.5,522.5 C 416.843,528.484 414.176,534.484 411.5,540.5C 413.509,545.183 415.509,549.85 417.5,554.5C 414.22,550.115 411.553,545.282 409.5,540C 412.474,533.876 415.808,528.042 419.5,522.5 Z"/></g>
<g><path style="opacity:0.999" fill="#0889f1" d="M 465.5,525.5 C 463.323,533.758 462.99,542.091 464.5,550.5C 462.867,548.386 462.201,544.72 462.5,539.5C 462.667,536.833 462.833,534.167 463,531.5C 463.302,528.565 464.135,526.565 465.5,525.5 Z"/></g>
<g><path style="opacity:1" fill="#2391f2" d="M 254.5,534.5 C 255.326,538.982 255.826,543.649 256,548.5C 256.847,550.854 257.68,553.188 258.5,555.5C 255.759,552.466 254.259,548.799 254,544.5C 253.253,541.076 253.42,537.743 254.5,534.5 Z"/></g>
<g><path style="opacity:1" fill="#1b8ef2" d="M 597.5,511.5 C 603.446,520.549 608.78,530.049 613.5,540C 609.701,549.108 605.034,557.608 599.5,565.5C 603.573,556.91 607.906,548.41 612.5,540C 606.838,530.841 601.838,521.341 597.5,511.5 Z"/></g>
<g><path style="opacity:0.004" fill="#26a5e7" d="M 130.5,540.5 C 131.833,541.167 131.833,541.167 130.5,540.5 Z"/></g>
<g><path style="opacity:0.996" fill="#0d8cf2" d="M 642.5,537.5 C 645.403,543.651 648.07,549.984 650.5,556.5C 647.274,551.053 644.274,545.387 641.5,539.5C 641.863,538.817 642.196,538.15 642.5,537.5 Z"/></g>
<g><path style="opacity:1" fill="#1d91f2" d="M 762.5,523.5 C 769.154,530.66 770.987,538.993 768,548.5C 766.974,551.239 765.474,553.572 763.5,555.5C 769.096,544.601 768.762,533.934 762.5,523.5 Z"/></g>
<g><path style="opacity:1" fill="#0b8af3" d="M 793.5,552.5 C 794.097,552.735 794.43,553.235 794.5,554C 792.912,560.679 789.912,566.512 785.5,571.5C 788.976,565.543 791.643,559.209 793.5,552.5 Z"/></g>
<g><path style="opacity:1" fill="#1b8ef2" d="M 228.5,551.5 C 230.813,560.457 234.48,568.79 239.5,576.5C 233.697,569.899 229.697,562.232 227.5,553.5C 227.543,552.584 227.876,551.917 228.5,551.5 Z"/></g>
<g><path style="opacity:1" fill="#108af1" d="M 377.5,545.5 C 372.742,557.34 367.742,569.007 362.5,580.5C 366.156,568.196 371.156,556.529 377.5,545.5 Z"/></g>
<g><path style="opacity:1" fill="#078bf3" d="M 760.5,560.5 C 756.833,564.833 752.833,568.833 748.5,572.5C 748.062,572.565 747.728,572.399 747.5,572C 751.697,567.258 756.03,563.425 760.5,560.5 Z"/></g>
<g><path style="opacity:1" fill="#058bf1" d="M 473.5,572.5 C 476.833,575.167 479.833,578.167 482.5,581.5C 478.5,579.5 475.5,576.5 473.5,572.5 Z"/></g>
<g><path style="opacity:0.999" fill="#18a9f7" d="M 640.5,604.5 C 642.008,608.357 643.341,612.357 644.5,616.5C 640.962,618.898 636.962,620.398 632.5,621C 633.094,621.464 633.761,621.631 634.5,621.5C 628.413,623.26 622.08,624.26 615.5,624.5C 608.821,625.206 602.155,625.706 595.5,626C 597.16,624.512 598.16,622.679 598.5,620.5C 603.776,610.569 609.442,600.902 615.5,591.5C 619.81,585.563 623.643,579.23 627,572.5C 631.552,583.807 636.052,594.474 640.5,604.5 Z"/></g>
<g><path style="opacity:0.999" fill="#18a9f7" d="M 398.5,577.5 C 403.417,585.664 408.083,593.997 412.5,602.5C 414.749,608.005 417.749,613.005 421.5,617.5C 424.303,620.417 426.637,623.75 428.5,627.5C 427.667,627.833 426.833,628.167 426,628.5C 422.65,628.054 419.483,627.388 416.5,626.5C 417.239,626.631 417.906,626.464 418.5,626C 412.179,624.787 405.845,623.621 399.5,622.5C 398.274,622.52 397.274,622.853 396.5,623.5C 395.508,623.672 394.842,623.338 394.5,622.5C 390.21,620.791 385.21,619.124 379.5,617.5C 380,616.5 380.5,615.5 381,614.5C 381.914,615.654 382.747,615.487 383.5,614C 382.572,613.612 381.905,612.945 381.5,612C 382.66,610.003 382.66,608.169 381.5,606.5C 382.462,602.605 383.796,598.939 385.5,595.5C 385.435,595.938 385.601,596.272 386,596.5C 389,588.5 392,580.5 395,572.5C 395.697,574.584 396.864,576.251 398.5,577.5 Z"/></g>
<g><path style="opacity:1" fill="#0b8cf2" d="M 552.5,567.5 C 550.284,573.715 546.284,578.381 540.5,581.5C 544.904,577.103 548.904,572.436 552.5,567.5 Z"/></g>
<g><path style="opacity:0.004" fill="#26a7ea" d="M 130.5,580.5 C 131.833,581.167 131.833,581.167 130.5,580.5 Z"/></g>
<g><path style="opacity:1" fill="#128bf2" d="M 485.5,583.5 C 491.22,586.352 497.22,588.519 503.5,590C 510.189,590.609 516.856,590.443 523.5,589.5C 523.938,589.435 524.272,589.601 524.5,590C 512.542,592.618 500.876,591.618 489.5,587C 487.907,586.051 486.574,584.885 485.5,583.5 Z"/></g>
<g><path style="opacity:0.996" fill="#1a8df1" d="M 398.5,577.5 C 396.864,576.251 395.697,574.584 395,572.5C 392,580.5 389,588.5 386,596.5C 385.601,596.272 385.435,595.938 385.5,595.5C 387.967,586.6 391.134,577.933 395,569.5C 396.454,572.071 397.62,574.738 398.5,577.5 Z"/></g>
<g><path style="opacity:0.004" fill="#24a5e8" d="M 130.5,588.5 C 131.833,589.167 131.833,589.167 130.5,588.5 Z"/></g>
<g><path style="opacity:0.996" fill="#068cf3" d="M 243.5,581.5 C 248.167,585.5 252.5,589.833 256.5,594.5C 251.167,591.167 246.833,586.833 243.5,581.5 Z"/></g>
<g><path style="opacity:0.992" fill="#078ef4" d="M 779.5,579.5 C 775.833,585.167 771.167,589.833 765.5,593.5C 769.833,588.5 774.5,583.833 779.5,579.5 Z"/></g>
<g><path style="opacity:0.996" fill="#1a8cf1" d="M 640.5,604.5 C 636.052,594.474 631.552,583.807 627,572.5C 623.643,579.23 619.81,585.563 615.5,591.5C 619.224,583.721 623.224,576.054 627.5,568.5C 632.408,580.311 636.741,592.311 640.5,604.5 Z"/></g>
<g><path style="opacity:0.997" fill="#1eaef5" d="M 133.5,758.5 C 133.411,581.74 133.077,399.74 132.5,212.5C 132.482,202.917 134.482,193.917 138.5,185.5C 139.363,184.537 140.03,184.537 140.5,185.5C 138.541,189.669 137.041,194.002 136,198.5C 135.179,211.076 135.345,223.576 136.5,236C 135.833,238.667 135.167,241.333 134.5,244C 135.254,327.724 135.254,410.391 134.5,492C 134.79,495.118 135.456,498.118 136.5,501C 135.833,508.667 135.167,516.333 134.5,524C 135.012,601.263 135.345,679.263 135.5,758C 134.906,758.464 134.239,758.631 133.5,758.5 Z"/></g>
<g><path style="opacity:1" fill="#2091f3" d="M 256.5,594.5 C 263.02,598.925 269.353,603.592 275.5,608.5C 267.994,605.313 261.66,600.647 256.5,594.5 Z"/></g>
<g><path style="opacity:0.996" fill="#188df2" d="M 292.5,586.5 C 311.098,596.869 330.598,605.202 351,611.5C 351.998,608.372 353.164,606.038 354.5,604.5C 354.832,611.664 351.832,613.831 345.5,611C 326.482,605.487 308.816,597.321 292.5,586.5 Z"/></g>
<g><path style="opacity:1" fill="#108af1" d="M 412.5,602.5 C 416.251,606.995 419.251,611.995 421.5,617.5C 417.749,613.005 414.749,608.005 412.5,602.5 Z"/></g>
<g><path style="opacity:1" fill="#158ef3" d="M 694.5,604.5 C 686.439,607.965 678.106,610.631 669.5,612.5C 668.577,606.732 667.244,601.065 665.5,595.5C 665.435,595.062 665.601,594.728 666,594.5C 667.599,599.13 669.099,603.797 670.5,608.5C 670.887,609.72 671.72,610.387 673,610.5C 679.876,608.313 686.71,605.98 693.5,603.5C 694.107,603.624 694.44,603.957 694.5,604.5 Z"/></g>
<g><path style="opacity:1" fill="#198df3" d="M 576.5,604.5 C 574.913,608.683 572.579,612.35 569.5,615.5C 571.087,611.317 573.421,607.65 576.5,604.5 Z"/></g>
<g><path style="opacity:1" fill="#2491f2" d="M 283.5,613.5 C 291.818,616.992 299.818,620.992 307.5,625.5C 298.749,622.817 290.749,618.817 283.5,613.5 Z"/></g>
<g><path style="opacity:0.992" fill="#0e8bf3" d="M 644.5,616.5 C 644.414,617.496 644.748,618.329 645.5,619C 641.896,620.154 638.229,620.987 634.5,621.5C 633.761,621.631 633.094,621.464 632.5,621C 636.962,620.398 640.962,618.898 644.5,616.5 Z"/></g>
<g><path style="opacity:0.004" fill="#25a6e7" d="M 130.5,620.5 C 131.833,621.167 131.833,621.167 130.5,620.5 Z"/></g>
<g><path style="opacity:1" fill="#1f91f4" d="M 381.5,606.5 C 382.66,608.169 382.66,610.003 381.5,612C 381.905,612.945 382.572,613.612 383.5,614C 382.747,615.487 381.914,615.654 381,614.5C 380.5,615.5 380,616.5 379.5,617.5C 385.21,619.124 390.21,620.791 394.5,622.5C 389.408,621.977 384.408,620.977 379.5,619.5C 379.167,618.667 378.833,617.833 378.5,617C 379.404,613.455 380.404,609.955 381.5,606.5 Z"/></g>
<g><path style="opacity:0.008" fill="#24aae8" d="M 890.5,620.5 C 891.833,621.167 891.833,621.167 890.5,620.5 Z"/></g>
<g><path style="opacity:0.996" fill="#2292f2" d="M 396.5,623.5 C 397.274,622.853 398.274,622.52 399.5,622.5C 405.845,623.621 412.179,624.787 418.5,626C 417.906,626.464 417.239,626.631 416.5,626.5C 409.764,625.933 403.098,624.933 396.5,623.5 Z"/></g>
<g><path style="opacity:1" fill="#188ef3" d="M 718.5,623.5 C 708.964,629.01 698.798,633.343 688,636.5C 687.235,636.43 686.735,636.097 686.5,635.5C 697.251,631.694 707.918,627.694 718.5,623.5 Z"/></g>
<g><path style="opacity:0.99" fill="#148ef2" d="M 598.5,620.5 C 598.16,622.679 597.16,624.512 595.5,626C 602.155,625.706 608.821,625.206 615.5,624.5C 608.082,626.721 600.415,627.888 592.5,628C 594.364,625.312 596.364,622.812 598.5,620.5 Z"/></g>
<g><path style="opacity:0.004" fill="#26a6e9" d="M 130.5,628.5 C 131.833,629.167 131.833,629.167 130.5,628.5 Z"/></g>
<g><path style="opacity:1" fill="#1d96f2" d="M 455.5,619.5 C 458.178,622.332 460.512,625.499 462.5,629C 492.645,630.092 522.645,630.925 552.5,631.5C 522.494,632.935 492.494,632.769 462.5,631C 459.516,627.527 457.183,623.694 455.5,619.5 Z"/></g>
<g><path style="opacity:1" fill="#188cf1" d="M 319.5,630.5 C 328.083,632.861 336.583,635.528 345,638.5C 344.424,645.556 343.257,652.556 341.5,659.5C 340.861,658.903 340.528,658.07 340.5,657C 341.712,651.268 343.045,645.601 344.5,640C 335.806,637.495 327.472,634.329 319.5,630.5 Z"/></g>
<g><path style="opacity:1" fill="#138af2" d="M 684.5,636.5 C 682.756,637.52 680.756,639.02 678.5,641C 680.358,648.456 682.025,655.956 683.5,663.5C 683.48,664.726 683.147,665.726 682.5,666.5C 680.756,656.78 678.756,647.113 676.5,637.5C 679.206,637.425 681.873,637.092 684.5,636.5 Z"/></g>
<g><path style="opacity:1" fill="#188cf1" d="M 394.5,648.5 C 393.903,649.139 393.07,649.472 392,649.5C 386.956,648.715 381.956,647.715 377,646.5C 374.973,647.732 373.64,647.398 373,645.5C 372.221,648.097 371.721,648.097 371.5,645.5C 371.369,644.761 371.536,644.094 372,643.5C 379.324,645.865 386.824,647.532 394.5,648.5 Z"/></g>
<g><path style="opacity:0.999" fill="#17abf7" d="M 371.5,645.5 C 371.721,648.097 372.221,648.097 373,645.5C 373.64,647.398 374.973,647.732 377,646.5C 381.956,647.715 386.956,648.715 392,649.5C 393.07,649.472 393.903,649.139 394.5,648.5C 408.573,651.171 422.573,653.504 436.5,655.5C 439.056,656.597 442.389,657.43 446.5,658C 448.647,661.969 451.313,665.469 454.5,668.5C 455.906,668.973 456.573,669.973 456.5,671.5C 462.361,681.364 469.361,690.364 477.5,698.5C 481.078,703.289 484.911,707.956 489,712.5C 489.195,713.819 489.028,715.153 488.5,716.5C 474.164,731.824 457.831,744.491 439.5,754.5C 429.406,759.41 419.739,763.744 410.5,767.5C 410.158,768.338 409.492,768.672 408.5,768.5C 407.903,767.861 407.07,767.528 406,767.5C 399.343,768.071 392.843,768.738 386.5,769.5C 385.508,769.672 384.842,769.338 384.5,768.5C 377.374,764.32 372.04,757.987 368.5,749.5C 367.326,748.486 366.66,747.153 366.5,745.5C 367.139,744.903 367.472,744.07 367.5,743C 366.128,736.909 365.295,730.742 365,724.5C 364.83,713.659 364.33,702.992 363.5,692.5C 363.216,690.585 363.549,688.919 364.5,687.5C 364.351,688.552 364.517,689.552 365,690.5C 366.133,680.605 367.633,670.772 369.5,661C 369.486,659.615 369.152,658.449 368.5,657.5C 369.213,653.313 370.213,649.313 371.5,645.5 Z"/></g>
<g><path style="opacity:0.999" fill="#17abf7" d="M 648.5,644.5 C 652.568,654.309 655.068,664.643 656,675.5C 657.85,692.271 659.017,708.937 659.5,725.5C 658.859,731.025 657.859,736.358 656.5,741.5C 654.6,746.233 652.434,751.566 650,757.5C 648.542,759.96 646.709,762.127 644.5,764C 644.728,764.399 645.062,764.565 645.5,764.5C 645.158,765.338 644.492,765.672 643.5,765.5C 632.409,769.363 621.242,769.363 610,765.5C 609.235,765.57 608.735,765.903 608.5,766.5C 607.508,766.672 606.842,766.338 606.5,765.5C 597.026,760.763 587.026,755.763 576.5,750.5C 563.738,743.743 552.405,735.076 542.5,724.5C 539.437,720.434 535.771,717.101 531.5,714.5C 530.475,714.103 530.308,713.437 531,712.5C 547.358,694.816 562.191,675.982 575.5,656C 600.126,653.896 624.459,650.062 648.5,644.5 Z"/></g>
<g><path style="opacity:1" fill="#158ff1" d="M 436.5,655.5 C 439.85,655.335 443.183,655.502 446.5,656C 449.562,659.969 452.229,664.136 454.5,668.5C 451.313,665.469 448.647,661.969 446.5,658C 442.389,657.43 439.056,656.597 436.5,655.5 Z"/></g>
<g><path style="opacity:0.999" fill="#19a6f6" d="M 479.5,657.5 C 500.318,657.482 521.318,657.315 542.5,657C 532.378,670.124 521.878,682.957 511,695.5C 500.259,682.935 489.759,670.268 479.5,657.5 Z"/></g>
<g><path style="opacity:1" fill="#0b87f1" d="M 340.5,661.5 C 339.219,669.798 338.219,678.131 337.5,686.5C 336.362,683.696 336.195,680.696 337,677.5C 337.493,671.312 338.66,665.978 340.5,661.5 Z"/></g>
<g><path style="opacity:1" fill="#3293f3" d="M 659.5,725.5 C 659.017,708.937 657.85,692.271 656,675.5C 655.068,664.643 652.568,654.309 648.5,644.5C 649.496,644.586 650.329,644.252 651,643.5C 658.387,670.373 661.221,697.706 659.5,725.5 Z"/></g>
<g><path style="opacity:0.004" fill="#23a9ea" d="M 890.5,668.5 C 891.833,669.167 891.833,669.167 890.5,668.5 Z"/></g>
<g><path style="opacity:0.994" fill="#248ef2" d="M 368.5,657.5 C 369.152,658.449 369.486,659.615 369.5,661C 367.633,670.772 366.133,680.605 365,690.5C 364.517,689.552 364.351,688.552 364.5,687.5C 365.179,677.4 366.512,667.4 368.5,657.5 Z"/></g>
<g><path style="opacity:1" fill="#1f8ff1" d="M 456.5,671.5 C 463.875,680.208 470.875,689.208 477.5,698.5C 469.361,690.364 462.361,681.364 456.5,671.5 Z"/></g>
<g><path style="opacity:0.999" fill="#2d91f3" d="M 363.5,692.5 C 364.33,702.992 364.83,713.659 365,724.5C 365.295,730.742 366.128,736.909 367.5,743C 367.472,744.07 367.139,744.903 366.5,745.5C 362.809,727.991 361.809,710.325 363.5,692.5 Z"/></g>
<g><path style="opacity:1" fill="#158af1" d="M 477.5,698.5 C 482.214,702.9 486.714,707.566 491,712.5C 491.279,714.412 490.446,715.746 488.5,716.5C 489.028,715.153 489.195,713.819 489,712.5C 484.911,707.956 481.078,703.289 477.5,698.5 Z"/></g>
<g><path style="opacity:0.999" fill="#1693f3" d="M 685.5,736.5 C 687.145,713.756 686.478,691.089 683.5,668.5C 688.966,691.286 689.8,714.953 686,739.5C 685.517,738.552 685.351,737.552 685.5,736.5 Z"/></g>
<g><path style="opacity:1" fill="#0788f1" d="M 336.5,688.5 C 335.318,702.839 335.318,717.172 336.5,731.5C 336.649,732.552 336.483,733.552 336,734.5C 334.468,720.537 334.134,706.537 335,692.5C 335.079,690.264 335.579,688.93 336.5,688.5 Z"/></g>
<g><path style="opacity:1" fill="#138cf2" d="M 531.5,714.5 C 535.771,717.101 539.437,720.434 542.5,724.5C 538.229,721.899 534.563,718.566 531.5,714.5 Z"/></g>
<g><path style="opacity:0.004" fill="#26a5e6" d="M 130.5,732.5 C 131.833,733.167 131.833,733.167 130.5,732.5 Z"/></g>
<g><path style="opacity:0.008" fill="#24a8e9" d="M 890.5,732.5 C 891.833,733.167 891.833,733.167 890.5,732.5 Z"/></g>
<g><path style="opacity:0.996" fill="#088bf3" d="M 524.5,746.5 C 519.594,743.102 515.094,739.102 511,734.5C 507.239,738.77 503.072,742.437 498.5,745.5C 502.177,740.99 506.343,736.99 511,733.5C 515.99,737.324 520.49,741.657 524.5,746.5 Z"/></g>
<g><path style="opacity:1" fill="#138cf2" d="M 337.5,736.5 C 338.167,741.5 338.833,746.5 339.5,751.5C 338.015,750.109 337.181,747.776 337,744.5C 336.199,741.633 336.366,738.966 337.5,736.5 Z"/></g>
<g><path style="opacity:0.008" fill="#24a4e8" d="M 130.5,748.5 C 131.833,749.167 131.833,749.167 130.5,748.5 Z"/></g>
<g><path style="opacity:1" fill="#1b8df2" d="M 656.5,741.5 C 655.685,750.653 652.018,758.32 645.5,764.5C 645.062,764.565 644.728,764.399 644.5,764C 646.709,762.127 648.542,759.96 650,757.5C 652.434,751.566 654.6,746.233 656.5,741.5 Z"/></g>
<g><path style="opacity:1" fill="#1a8ef2" d="M 682.5,750.5 C 680.125,771.982 668.791,787.149 648.5,796C 647.251,796.74 646.251,796.573 645.5,795.5C 666.184,787.473 678.517,772.473 682.5,750.5 Z"/></g>
<g><path style="opacity:0.992" fill="#0f89f0" d="M 576.5,750.5 C 587.026,755.763 597.026,760.763 606.5,765.5C 595.624,762.062 585.624,757.062 576.5,750.5 Z"/></g>
<g><path style="opacity:1" fill="#168cf1" d="M 368.5,749.5 C 372.04,757.987 377.374,764.32 384.5,768.5C 375.552,765.218 370.219,758.885 368.5,749.5 Z"/></g>
<g><path style="opacity:1" fill="#1b8cf1" d="M 439.5,754.5 C 430.75,760.705 421.084,765.038 410.5,767.5C 419.739,763.744 429.406,759.41 439.5,754.5 Z"/></g>
<g><path style="opacity:0.994" fill="#2093f2" d="M 608.5,766.5 C 608.735,765.903 609.235,765.57 610,765.5C 621.242,769.363 632.409,769.363 643.5,765.5C 639.212,768.93 634.212,770.596 628.5,770.5C 621.621,770.058 614.955,768.724 608.5,766.5 Z"/></g>
<g><path style="opacity:1" fill="#2091f3" d="M 408.5,768.5 C 401.203,770.546 393.87,770.879 386.5,769.5C 392.843,768.738 399.343,768.071 406,767.5C 407.07,767.528 407.903,767.861 408.5,768.5 Z"/></g>
<g><path style="opacity:1" fill="#128ff3" d="M 456.5,777.5 C 449.555,782.807 441.888,786.807 433.5,789.5C 441.001,785.249 448.668,781.249 456.5,777.5 Z"/></g>
<g><path style="opacity:1" fill="#188cf0" d="M 581.5,785.5 C 586.456,786.982 591.123,788.982 595.5,791.5C 590.327,790.578 585.66,788.578 581.5,785.5 Z"/></g>
<g><path style="opacity:0.996" fill="#1b8cf1" d="M 343.5,764.5 C 358.765,794.17 382.765,804.503 415.5,795.5C 414.555,797.127 412.555,797.96 409.5,798C 387.705,803.013 368.872,797.847 353,782.5C 348.723,777.064 345.556,771.064 343.5,764.5 Z"/></g>
<g><path style="opacity:0.998" fill="#0a85f0" d="M 595.5,791.5 C 604.626,794.448 613.959,796.448 623.5,797.5C 626.977,798.323 630.644,798.823 634.5,799C 620.696,800.127 607.696,797.627 595.5,791.5 Z"/></g>
<g><path style="opacity:0.004" fill="#299edd" d="M 135.5,838.5 C 136.289,838.783 136.956,839.283 137.5,840C 136.184,840.528 135.517,840.028 135.5,838.5 Z"/></g>
<g><path style="opacity:0.004" fill="#279fe0" d="M 138.5,843.5 C 139.833,844.167 139.833,844.167 138.5,843.5 Z"/></g>
<g><path style="opacity:0.004" fill="#2fa0db" d="M 148.5,857.5 C 149.833,858.167 149.833,858.167 148.5,857.5 Z"/></g>
<g><path style="opacity:0.004" fill="#2ba1de" d="M 151.5,861.5 C 152.833,862.167 152.833,862.167 151.5,861.5 Z"/></g>
<g><path style="opacity:0.004" fill="#2ba2df" d="M 161.5,868.5 C 162.833,869.167 162.833,869.167 161.5,868.5 Z"/></g>
<g><path style="opacity:0.783" fill="#16a1eb" d="M 189.5,876.5 C 404.333,875.5 619.333,875.167 834.5,875.5C 804.764,876.17 774.931,876.837 745,877.5C 684.924,876.836 625.091,876.503 565.5,876.5C 564.353,876.818 563.519,877.484 563,878.5C 562.667,877.833 562.333,877.167 562,876.5C 559.312,876.997 556.479,876.997 553.5,876.5C 551.036,876.59 548.87,877.257 547,878.5C 546.667,877.833 546.333,877.167 546,876.5C 427.19,876.571 308.356,876.571 189.5,876.5 Z"/></g>
<g><path style="opacity:0.004" fill="#25a1e4" d="M 183.5,876.5 C 184.833,877.167 184.833,877.167 183.5,876.5 Z"/></g>
<g><path style="opacity:0.004" fill="#23a5e8" d="M 191.5,877.5 C 192.833,878.167 192.833,878.167 191.5,877.5 Z"/></g>
<g><path style="opacity:0.004" fill="#21a5e9" d="M 202.5,877.5 C 203.833,878.167 203.833,878.167 202.5,877.5 Z"/></g>
<g><path style="opacity:0.004" fill="#21a5ea" d="M 210.5,877.5 C 211.833,878.167 211.833,878.167 210.5,877.5 Z"/></g>
<g><path style="opacity:0.004" fill="#1fa5ea" d="M 226.5,877.5 C 227.833,878.167 227.833,878.167 226.5,877.5 Z"/></g>
<g><path style="opacity:0.004" fill="#20a4ea" d="M 234.5,877.5 C 235.833,878.167 235.833,878.167 234.5,877.5 Z"/></g>
<g><path style="opacity:0.004" fill="#21a6ec" d="M 274.5,877.5 C 275.833,878.167 275.833,878.167 274.5,877.5 Z"/></g>
<g><path style="opacity:0.004" fill="#20a6ec" d="M 298.5,878.5 C 298.897,877.475 299.563,877.308 300.5,878C 299.906,878.464 299.239,878.631 298.5,878.5 Z"/></g>
<g><path style="opacity:0.004" fill="#21a6eb" d="M 330.5,878.5 C 330.897,877.475 331.563,877.308 332.5,878C 331.906,878.464 331.239,878.631 330.5,878.5 Z"/></g>
<g><path style="opacity:0.004" fill="#21a5eb" d="M 506.5,877.5 C 507.833,878.167 507.833,878.167 506.5,877.5 Z"/></g>
<g><path style="opacity:0.004" fill="#20a5eb" d="M 538.5,877.5 C 539.833,878.167 539.833,878.167 538.5,877.5 Z"/></g>
<g><path style="opacity:0.004" fill="#20a5eb" d="M 578.5,877.5 C 579.833,878.167 579.833,878.167 578.5,877.5 Z"/></g>
<g><path style="opacity:0.004" fill="#21a4ea" d="M 586.5,877.5 C 587.833,878.167 587.833,878.167 586.5,877.5 Z"/></g>
<g><path style="opacity:0.004" fill="#21a6eb" d="M 602.5,877.5 C 603.833,878.167 603.833,878.167 602.5,877.5 Z"/></g>
<g><path style="opacity:0.004" fill="#21a7ec" d="M 674.5,877.5 C 675.833,878.167 675.833,878.167 674.5,877.5 Z"/></g>
<g><path style="opacity:0.004" fill="#20a5ec" d="M 730.5,878.5 C 730.897,877.475 731.563,877.308 732.5,878C 731.906,878.464 731.239,878.631 730.5,878.5 Z"/></g>
<g><path style="opacity:0.004" fill="#1fa4eb" d="M 746.5,878.5 C 746.897,877.475 747.563,877.308 748.5,878C 747.906,878.464 747.239,878.631 746.5,878.5 Z"/></g>
<g><path style="opacity:0.004" fill="#21a5ea" d="M 778.5,877.5 C 779.833,878.167 779.833,878.167 778.5,877.5 Z"/></g>
<g><path style="opacity:0.004" fill="#20a5ee" d="M 799.5,877.5 C 800.833,878.167 800.833,878.167 799.5,877.5 Z"/></g>
<g><path style="opacity:0.008" fill="#20a6e9" d="M 811.5,877.5 C 812.833,878.167 812.833,878.167 811.5,877.5 Z"/></g>
<g><path style="opacity:0.008" fill="#22a4ea" d="M 823.5,877.5 C 824.833,878.167 824.833,878.167 823.5,877.5 Z"/></g>
<g><path style="opacity:0.004" fill="#21a5eb" d="M 255.5,878.5 C 256.833,879.167 256.833,879.167 255.5,878.5 Z"/></g>
<g><path style="opacity:0.004" fill="#20a6ec" d="M 271.5,878.5 C 272.833,879.167 272.833,879.167 271.5,878.5 Z"/></g>
<g><path style="opacity:0.004" fill="#22a5ec" d="M 279.5,878.5 C 280.833,879.167 280.833,879.167 279.5,878.5 Z"/></g>
<g><path style="opacity:0.004" fill="#20a5ed" d="M 295.5,878.5 C 296.833,879.167 296.833,879.167 295.5,878.5 Z"/></g>
<g><path style="opacity:0.004" fill="#21a4ec" d="M 319.5,878.5 C 320.833,879.167 320.833,879.167 319.5,878.5 Z"/></g>
<g><path style="opacity:0.004" fill="#20a4ec" d="M 415.5,878.5 C 416.833,879.167 416.833,879.167 415.5,878.5 Z"/></g>
<g><path style="opacity:0.004" fill="#1fa5ed" d="M 471.5,878.5 C 472.833,879.167 472.833,879.167 471.5,878.5 Z"/></g>
<g><path style="opacity:0.008" fill="#20a5ea" d="M 543.5,878.5 C 544.833,879.167 544.833,879.167 543.5,878.5 Z"/></g>
<g><path style="opacity:0.004" fill="#21a4ec" d="M 567.5,878.5 C 568.833,879.167 568.833,879.167 567.5,878.5 Z"/></g>
<g><path style="opacity:0.004" fill="#21a5ed" d="M 607.5,878.5 C 608.833,879.167 608.833,879.167 607.5,878.5 Z"/></g>
<g><path style="opacity:0.004" fill="#21a6eb" d="M 615.5,878.5 C 616.833,879.167 616.833,879.167 615.5,878.5 Z"/></g>
<g><path style="opacity:0.004" fill="#21a5eb" d="M 631.5,878.5 C 632.833,879.167 632.833,879.167 631.5,878.5 Z"/></g>
<g><path style="opacity:0.004" fill="#21a4ea" d="M 663.5,878.5 C 664.833,879.167 664.833,879.167 663.5,878.5 Z"/></g>
<g><path style="opacity:0.004" fill="#21a5ed" d="M 679.5,878.5 C 680.833,879.167 680.833,879.167 679.5,878.5 Z"/></g>
<g><path style="opacity:0.004" fill="#1fa5ec" d="M 695.5,877.5 C 696.525,877.897 696.692,878.563 696,879.5C 695.536,878.906 695.369,878.239 695.5,877.5 Z"/></g>
<g><path style="opacity:0.004" fill="#20a5ec" d="M 703.5,878.5 C 704.833,879.167 704.833,879.167 703.5,878.5 Z"/></g>
<g><path style="opacity:0.004" fill="#20a6eb" d="M 719.5,878.5 C 720.833,879.167 720.833,879.167 719.5,878.5 Z"/></g>
<g><path style="opacity:0.004" fill="#22a5ee" d="M 723.5,878.5 C 724.833,879.167 724.833,879.167 723.5,878.5 Z"/></g>
<g><path style="opacity:0.004" fill="#21a5ea" d="M 751.5,878.5 C 752.833,879.167 752.833,879.167 751.5,878.5 Z"/></g>
<g><path style="opacity:0.004" fill="#1fa3e9" d="M 807.5,877.5 C 808.289,877.783 808.956,878.283 809.5,879C 808.184,879.528 807.517,879.028 807.5,877.5 Z"/></g>
</svg>
